<?xml version="1.0" encoding="UTF-8"?>
<svg id="Capa_2" data-name="Capa 2" xmlns="http://www.w3.org/2000/svg" viewBox="0 0 227.92 211.75">
  <defs>
    <style>
      .cls-1 {
        fill: none;
        stroke: #7e5540;
        stroke-miterlimit: 10;
        stroke-width: 5px;
      }
    </style>
  </defs>
  <g id="Capa_1-2" data-name="Capa 1">
    <path class="cls-1" d="M107.38,206.32h.02c1.84,1.95,4.3,2.95,6.69,2.93,2.37.03,4.87-1,6.68-2.92h.02s86.6-91.75,86.6-91.75c.06-.06.08-.13.13-.18,6.24-6.71,11.16-14.85,14.26-23.94,2.36-6.97,3.64-14.48,3.64-22.28,0-36.24-27.6-65.67-61.59-65.68-20.57,0-38.69,10.89-49.87,27.44C102.77,13.39,84.66,2.5,64.09,2.5,30.12,2.51,2.51,31.94,2.5,68.18c0,7.62,1.23,14.97,3.48,21.79,2.58,7.79,6.49,14.89,11.43,21.01h0c1.98,2.46,4.16,4.75,6.48,6.88h-.02s83.5,88.46,83.5,88.46Z"/>
  </g>
</svg>