<?xml version="1.0" encoding="UTF-8"?>
<svg id="Capa_2" data-name="Capa 2" xmlns="http://www.w3.org/2000/svg" viewBox="0 0 236.07 227.54">
  <defs>
    <style>
      .cls-1 {
        fill: none;
        stroke: #7e5540;
        stroke-miterlimit: 10;
        stroke-width: 5px;
      }
    </style>
  </defs>
  <g id="Capa_1-2" data-name="Capa 1">
    <g>
      <path class="cls-1" d="M105.06,97.09h0c.85.91,2,1.37,3.1,1.36,1.1.01,2.26-.46,3.1-1.36h0s40.19-42.58,40.19-42.58c.03-.03.04-.06.06-.08,2.9-3.12,5.18-6.89,6.62-11.11,1.09-3.24,1.69-6.72,1.69-10.34,0-16.82-12.81-30.48-28.58-30.48-9.55,0-17.95,5.05-23.14,12.73-5.19-7.68-13.6-12.73-23.15-12.73-15.77,0-28.58,13.66-28.58,30.48,0,3.54.57,6.95,1.62,10.11,1.2,3.61,3.01,6.91,5.31,9.75h0c.92,1.14,1.93,2.2,3.01,3.19h0s38.75,41.05,38.75,41.05Z"/>
      <path class="cls-1" d="M232.66,141.14c-.89-1.22-2.3-1.93-3.8-1.93-11.61,0-19.52-6.27-28.69-13.53-2-1.58-4.01-3.17-6.09-4.72-8.51-6.33-19.3-12.81-34.77-12.81-6.65,0-11.76.06-15.94.2h-32.57c-7.35,0-13.33,6.24-13.33,13.9s5.98,13.9,13.33,13.9h30.12c3.86.86,6.63,4.56,6.63,8.94,0,3.14-1.5,6.05-3.95,7.72l-11.12,3.15c-3.75.96-7.56,2.03-11.54,3.25l-.77.22c-20.69,5.84-27.79,7.79-29.92,8.35-.82.03-1.53,0-2.14-.09l-47.27-32.68-8.63-6.65c-.16-.12-.32-.23-.49-.33-.46-.31-.95-.59-1.45-.86-.96-.52-1.86-.91-2.84-1.24-.73-.22-1.51-.41-2.38-.55-2.28-.35-3.97-.27-5.83.09-9.55,1.03-16.71,9.31-16.71,19.37,0,5.09,1.89,9.9,5.33,13.57.07.09.15.17.23.25,1.27,1.31,2.66,2.4,4.14,3.25l78.54,60.72c.43.33.9.58,1.4.74l.78.32c2.42.9,4.72,1.33,7.02,1.33,1.37,0,2.78-.15,4.2-.45.1-.02.19-.04.29-.07l.36-.1c28.15-7.64,78.99-21.41,103.11-27.76.17-.05.34-.1.51-.17l1.55-.61c8.38-2.24,15.06-3.47,18.84-3.47,2.6,0,4.7-2.11,4.7-4.71v-3.07c.05-.28.07-.56.06-.85l-.06-39.1c.21-1.24-.09-2.53-.84-3.56Z"/>
    </g>
  </g>
</svg>