<?xml version="1.0" encoding="UTF-8"?>
<svg id="Capa_2" data-name="Capa 2" xmlns="http://www.w3.org/2000/svg" viewBox="0 0 173.66 253.46">
  <defs>
    <style>
      .cls-1 {
        fill: #7e5540;
        stroke-width: 0px;
      }
    </style>
  </defs>
  <g id="Capa_1-2" data-name="Capa 1">
    <g>
      <g>
        <g>
          <path class="cls-1" d="M98.45,253.46c-.1,0-.2,0-.29-.02-.86-.12-1.56-.75-1.77-1.59l-14.16-56.16c-.29-1.14.4-2.3,1.55-2.59,1.14-.29,2.3.4,2.59,1.55l12.87,51.05,15.61-27.09c.52-.9,1.61-1.29,2.58-.94l33.94,12.52c-3.18-13.39-5.6-24.5-7.96-35.27-2.57-11.77-5.23-23.95-8.86-39.07-.27-1.14.43-2.3,1.58-2.57,1.14-.28,2.3.43,2.57,1.58,3.64,15.16,6.3,27.35,8.88,39.15,2.57,11.77,5.23,23.95,8.86,39.07.18.76-.07,1.57-.66,2.09s-1.42.68-2.15.41l-35.99-13.27-17.34,30.09c-.38.67-1.09,1.07-1.85,1.07Z"/>
          <path class="cls-1" d="M75.21,253.46c-.66,0-1.29-.3-1.7-.84l-23.3-30.73-36.81,11.51c-.75.23-1.57.04-2.13-.51-.56-.55-.77-1.36-.56-2.12l22.59-77.81c.33-1.13,1.51-1.78,2.64-1.45,1.13.33,1.78,1.51,1.45,2.64l-21.48,74,34.45-10.77c.86-.27,1.79.03,2.34.75l21.2,27.96,12.13-75.02c.19-1.16,1.28-1.95,2.44-1.76,1.16.19,1.95,1.28,1.76,2.44l-12.92,79.94c-.14.84-.76,1.52-1.59,1.73-.17.04-.34.06-.52.06Z"/>
        </g>
        <g>
          <path class="cls-1" d="M86.83,173.66c-2.99,0-5.65-1.7-7.99-3.2-1.74-1.12-3.39-2.17-4.88-2.4-1.57-.25-3.5.26-5.55.79-2.78.73-5.65,1.48-8.42.58-2.82-.92-4.73-3.24-6.57-5.48-1.32-1.61-2.57-3.14-3.93-3.83-1.39-.71-3.38-.83-5.48-.96-2.88-.17-5.85-.35-8.22-2.08-2.38-1.73-3.47-4.52-4.52-7.21-.76-1.95-1.49-3.8-2.58-4.9s-2.94-1.82-4.9-2.58c-2.69-1.05-5.48-2.14-7.21-4.52-1.72-2.37-1.9-5.34-2.08-8.22-.13-2.1-.25-4.09-.96-5.48-.7-1.36-2.22-2.61-3.83-3.93-2.25-1.84-4.57-3.74-5.48-6.57-.9-2.77-.15-5.64.58-8.42.54-2.05,1.04-3.99.79-5.55-.23-1.49-1.29-3.14-2.4-4.88-1.5-2.34-3.2-4.99-3.2-7.99s1.7-5.65,3.2-7.99c1.12-1.74,2.17-3.39,2.4-4.88.25-1.57-.26-3.5-.79-5.55-.73-2.78-1.48-5.65-.58-8.42.92-2.82,3.24-4.73,5.48-6.57,1.61-1.32,3.14-2.57,3.83-3.93.71-1.39.83-3.38.96-5.48.17-2.88.35-5.85,2.08-8.22,1.73-2.38,4.52-3.47,7.21-4.52,1.95-.76,3.8-1.49,4.9-2.58,1.1-1.1,1.82-2.94,2.58-4.9,1.05-2.69,2.14-5.48,4.52-7.21,2.37-1.72,5.34-1.9,8.22-2.08,2.1-.13,4.09-.25,5.48-.96,1.36-.7,2.61-2.22,3.93-3.83,1.84-2.25,3.74-4.57,6.57-5.48,2.76-.9,5.64-.15,8.42.58,2.05.54,3.99,1.04,5.55.79,1.49-.23,3.14-1.29,4.88-2.4,2.34-1.5,4.99-3.2,7.99-3.2s5.65,1.7,7.99,3.2c1.74,1.12,3.39,2.17,4.88,2.4,1.57.25,3.5-.26,5.55-.79,2.78-.73,5.65-1.48,8.42-.58,2.82.92,4.73,3.24,6.57,5.48,1.32,1.61,2.57,3.14,3.93,3.83,1.39.71,3.38.83,5.48.96,2.88.17,5.85.35,8.22,2.08,2.38,1.73,3.47,4.52,4.52,7.21.76,1.95,1.49,3.8,2.58,4.9,1.1,1.1,2.94,1.82,4.9,2.58,2.69,1.05,5.48,2.14,7.21,4.52,1.72,2.37,1.9,5.34,2.08,8.22.13,2.1.25,4.09.96,5.48.7,1.36,2.22,2.61,3.83,3.93,2.25,1.84,4.57,3.74,5.48,6.57.9,2.77.15,5.64-.58,8.42-.54,2.05-1.04,3.99-.79,5.55.23,1.49,1.29,3.14,2.4,4.88,1.5,2.34,3.2,4.99,3.2,7.99s-1.7,5.65-3.2,7.99c-1.12,1.74-2.17,3.39-2.4,4.88-.25,1.57.26,3.5.79,5.55.73,2.78,1.48,5.65.58,8.42-.92,2.82-3.24,4.73-5.48,6.57-1.61,1.32-3.14,2.57-3.83,3.93-.71,1.39-.83,3.38-.96,5.48-.17,2.88-.35,5.85-2.08,8.22-1.73,2.38-4.52,3.47-7.21,4.52-1.95.76-3.8,1.49-4.9,2.58-1.1,1.1-1.82,2.94-2.58,4.9-1.05,2.69-2.14,5.48-4.52,7.21-2.37,1.72-5.34,1.9-8.22,2.08-2.1.13-4.09.25-5.48.96-1.36.7-2.61,2.22-3.93,3.83-1.84,2.25-3.74,4.57-6.57,5.48-2.77.9-5.64.15-8.42-.58-2.05-.54-3.99-1.04-5.55-.79-1.49.23-3.14,1.29-4.88,2.4-2.34,1.5-4.99,3.2-7.99,3.2ZM73.09,163.73c.51,0,1.03.04,1.54.12,2.37.37,4.48,1.72,6.52,3.03,2.03,1.3,3.94,2.52,5.69,2.52s3.66-1.23,5.69-2.52c2.04-1.3,4.14-2.65,6.52-3.03,2.45-.38,4.91.26,7.29.88,2.29.6,4.44,1.16,6.02.65,1.63-.53,3.07-2.28,4.58-4.13,1.54-1.88,3.14-3.83,5.29-4.93,2.19-1.12,4.72-1.27,7.16-1.42,2.37-.14,4.61-.28,5.97-1.27,1.37-1,2.19-3.1,3.06-5.31.89-2.28,1.81-4.63,3.54-6.36,1.73-1.73,4.08-2.65,6.36-3.54,2.22-.87,4.31-1.69,5.31-3.06.99-1.36,1.13-3.6,1.27-5.97.15-2.45.3-4.98,1.42-7.16,1.1-2.16,3.05-3.75,4.93-5.29,1.85-1.52,3.6-2.95,4.13-4.58.51-1.58-.05-3.74-.65-6.02-.62-2.38-1.27-4.85-.88-7.29.37-2.37,1.72-4.48,3.03-6.52,1.3-2.03,2.52-3.94,2.52-5.69s-1.23-3.66-2.52-5.69c-1.3-2.04-2.65-4.14-3.03-6.52-.38-2.45.26-4.91.88-7.29.6-2.29,1.16-4.44.65-6.02-.53-1.63-2.28-3.07-4.13-4.58-1.88-1.54-3.83-3.14-4.93-5.29-1.12-2.19-1.27-4.72-1.42-7.16-.14-2.37-.28-4.61-1.27-5.97-1-1.37-3.09-2.19-5.31-3.06-2.28-.89-4.63-1.81-6.36-3.54-1.73-1.73-2.65-4.08-3.54-6.36-.87-2.22-1.69-4.31-3.06-5.31-1.36-.99-3.6-1.13-5.97-1.27-2.45-.15-4.98-.3-7.16-1.42-2.16-1.1-3.75-3.05-5.29-4.93-1.52-1.85-2.95-3.6-4.58-4.13-1.58-.51-3.74.05-6.02.65-2.38.62-4.85,1.26-7.29.88-2.37-.37-4.48-1.72-6.52-3.03-2.03-1.3-3.94-2.52-5.69-2.52s-3.66,1.23-5.69,2.52c-2.04,1.3-4.14,2.65-6.52,3.03-2.45.38-4.91-.26-7.29-.88-2.28-.6-4.44-1.16-6.02-.65-1.63.53-3.07,2.28-4.58,4.13-1.54,1.88-3.14,3.83-5.29,4.93-2.19,1.12-4.72,1.27-7.16,1.42-2.37.14-4.61.28-5.97,1.27-1.37,1-2.19,3.09-3.06,5.31-.89,2.28-1.81,4.63-3.54,6.36-1.73,1.73-4.08,2.65-6.36,3.54-2.22.87-4.31,1.69-5.31,3.06-.99,1.36-1.12,3.6-1.27,5.97-.15,2.45-.3,4.98-1.42,7.16-1.1,2.16-3.05,3.75-4.93,5.29-1.85,1.52-3.6,2.95-4.13,4.58-.51,1.58.05,3.74.65,6.02.62,2.38,1.27,4.85.88,7.29-.37,2.37-1.72,4.48-3.03,6.52-1.3,2.03-2.52,3.94-2.52,5.69s1.23,3.66,2.52,5.69c1.3,2.04,2.65,4.14,3.03,6.52.38,2.45-.26,4.91-.88,7.29-.6,2.29-1.16,4.44-.65,6.02.53,1.63,2.28,3.07,4.13,4.58,1.88,1.54,3.83,3.14,4.93,5.29,1.12,2.19,1.27,4.72,1.42,7.16.14,2.37.28,4.61,1.27,5.97,1,1.37,3.1,2.19,5.31,3.06,2.28.89,4.63,1.81,6.36,3.54,1.73,1.73,2.65,4.08,3.54,6.36.87,2.22,1.69,4.31,3.06,5.31,1.36.99,3.6,1.12,5.97,1.27,2.45.15,4.98.3,7.16,1.42,2.16,1.1,3.75,3.05,5.29,4.93,1.52,1.85,2.95,3.6,4.58,4.13,1.58.51,3.74-.05,6.02-.65,1.88-.49,3.82-1,5.76-1Z"/>
          <path class="cls-1" d="M86.83,153.18c-36.59,0-66.35-29.76-66.35-66.35S50.25,20.48,86.83,20.48s66.35,29.76,66.35,66.35-29.76,66.35-66.35,66.35ZM86.83,24.74c-34.23,0-62.09,27.85-62.09,62.09s27.85,62.09,62.09,62.09,62.09-27.85,62.09-62.09-27.85-62.09-62.09-62.09Z"/>
        </g>
      </g>
      <path class="cls-1" d="M115.14,125.12l-28.31-20.57-28.31,20.57,10.81-33.28-28.31-20.57h34.99l10.81-33.28,10.81,33.28h34.99l-28.31,20.57,10.81,33.28ZM51.53,74.69l21.82,15.85-8.33,25.65,21.82-15.85,21.82,15.85-8.33-25.65,21.82-15.85h-26.97l-8.33-25.65-8.33,25.65h-26.97Z"/>
    </g>
  </g>
</svg>