<?xml version="1.0" encoding="UTF-8"?>
<svg id="Capa_2" data-name="Capa 2" xmlns="http://www.w3.org/2000/svg" viewBox="0 0 222.41 227.19">
  <defs>
    <style>
      .cls-1 {
        fill: none;
        stroke: #7e5540;
        stroke-linecap: round;
        stroke-linejoin: round;
        stroke-width: 5px;
      }
    </style>
  </defs>
  <g id="Capa_1-2" data-name="Capa 1">
    <g>
      <path class="cls-1" d="M94.67,180.21c5.28,5.27,10.55,10.55,15.83,15.82.63.47,2.18,1.49,4.36,1.58,3.61.15,5.96-2.37,6.3-2.76h.02s81.72-86.59,81.72-86.59c.05-.05.08-.12.12-.17,5.89-6.33,10.53-14.02,13.45-22.59,2.22-6.58,3.44-13.67,3.44-21.02,0-34.2-26.04-61.97-58.12-61.98-19.41,0-36.51,10.27-47.06,25.89-10.56-15.62-27.65-25.89-47.07-25.89-32.06.01-58.11,27.78-58.12,61.98,0,7.19,1.16,14.13,3.29,20.57,2.9,8.78,8.52,16.53,10.79,19.82,0,0,0,.01,0,.01"/>
      <g>
        <path class="cls-1" d="M89.93,187.21c-3.17,2.71-6.04,4.2-8.03,5.06-4.11,1.76-6.35,1.62-9.81,3.57-3.07,1.73-5.07,3.97-6.25,5.5-5.01,7.78-10.01,15.56-15.02,23.35-16.11-11.3-32.22-22.6-48.33-33.9,4.03-5.19,8.05-10.38,12.08-15.58.58-19.81,1.16-39.63,1.75-59.44-.39-5.77,4.15-10.7,9.67-10.85,5.67-.16,10.57,4.76,10.26,10.71-.07,6.67-.15,13.33-.22,20,19.95-28.05,34.86-48.46,39.11-54.05.89-1.17,3.03-3.91,6.47-4.55.28-.05,4.55-.78,7.46,2.19,2.51,2.57,2.97,6.85.98,10.49-7.47,11.49-14.94,22.98-22.41,34.48"/>
        <path class="cls-1" d="M89.59,187.47c19.7-28.23,33.91-49.13,37.74-55.01.8-1.23,2.66-4.17,2.11-7.62-.04-.28-.79-4.55-4.57-6.29-3.26-1.5-7.45-.49-10.21,2.61-6.96,9.13-13.92,18.26-20.88,27.39"/>
        <path class="cls-1" d="M86.69,94.82c1.39-2.03,2.78-4.07,4.17-6.1,2.58-4.71,7.08-7.34,11.28-6.72.67.1,3.32.57,5.1,2.78,2.65,3.28,2.25,9.01-1.47,13.82"/>
        <path class="cls-1" d="M80.53,137.21c8.4-12.84,16.81-25.69,25.21-38.53,2.69-4.07,8.21-5.14,12.33-2.51,11.28,7.19-4.92,26.46-7.61,30.53"/>
      </g>
    </g>
  </g>
</svg>