<?xml version="1.0" encoding="UTF-8"?>
<svg id="Capa_2" data-name="Capa 2" xmlns="http://www.w3.org/2000/svg" viewBox="0 0 240.75 168.09">
  <defs>
    <style>
      .cls-1 {
        fill: #7e5540;
        stroke: #7e5540;
        stroke-linecap: round;
        stroke-linejoin: round;
        stroke-width: 2px;
      }
    </style>
  </defs>
  <g id="Capa_1-2" data-name="Capa 1">
    <g>
      <path class="cls-1" d="M194.38,104.9l-1.72-1.85c8.74-8.1,15.8-13.99,26.04-20.13,4.03-2.41,8.33-4.53,12.81-6.33l.14-.05c3.34-1.35,5.49-4.62,5.56-8.53.13-7.17-1.6-19.22-10.6-35.89-9.38-17.43-18.83-24.62-25.1-27.57-2.74-1.32-5.74-1.35-8.25-.07l-.05.05-.29.13c-.7.27-1.46.58-2.28.91-6.24,2.52-16.69,6.73-28.3,5.93-5.66-.41-11.11.69-15.75,3.18l-20.37,10.86-15.49,11.2-1.48-2.05,15.69-11.33,20.46-10.91c5.05-2.71,10.97-3.9,17.12-3.47,11.02.77,20.74-3.16,27.18-5.76.78-.31,1.5-.6,2.16-.86l.06-.04c3.26-1.74,7.16-1.76,10.69-.06,6.61,3.12,16.53,10.62,26.24,28.66,9.26,17.16,11.04,29.67,10.9,37.14-.09,4.86-2.91,9.12-7.19,10.84l-.15.05c-4.31,1.73-8.5,3.8-12.41,6.13-10.05,6.03-17,11.83-25.62,19.82Z"/>
      <path class="cls-1" d="M182.83,122.35c-.11,0-.23,0-.34,0-3.24-.08-6.45-1.26-9.04-3.33l1.58-1.97c2.16,1.73,4.83,2.72,7.52,2.78,3.44.12,6.62-1.34,8.67-3.89,2.51-3.13,2.96-7.51,1.16-11.42-.8-1.77-2.06-3.37-3.62-4.63l-41.31-33.06c-4.01-3.13-6-4.51-7.76-5.73-2.29-1.59-4.27-2.97-9.81-7.55l1.61-1.95c5.45,4.51,7.39,5.86,9.64,7.42,1.78,1.24,3.81,2.64,7.88,5.83l41.33,33.08c1.87,1.5,3.37,3.42,4.33,5.55,2.2,4.78,1.63,10.16-1.48,14.05-2.48,3.09-6.24,4.84-10.36,4.84Z"/>
      <path class="cls-1" d="M31.34,91.02c-1.7-1.49-3.5-2.97-5.6-4.68-1.64-1.34-3.47-2.83-5.61-4.63-3.87-3.27-8.17-6.39-12.77-9.27l-.04-.02c-4.45-2.8-6.86-7.72-6.22-12.6.95-7.56,4.77-19.74,17.54-34.83C32.02,9.21,44.04,4.06,51.76,2.52c4.04-.84,8.24.11,11.49,2.61l.08.06c2.7,1.67,4.98,3.87,7.39,6.21,4.52,4.38,9.2,8.9,17.66,11.21.41.13,9.42,2.94,22.29,12.04l-1.46,2.06c-12.51-8.84-21.45-11.65-21.54-11.67-9.05-2.47-14.19-7.44-18.72-11.82-2.35-2.27-4.57-4.42-7.09-5.95l-.26-.21c-2.57-1.97-6.01-2.75-9.35-2.06-7.34,1.47-18.79,6.41-31.7,21.63C8.2,41.24,4.52,52.92,3.61,60.15c-.52,3.97,1.39,7.83,4.98,10.09l.04.02c4.78,3,9.17,6.19,13.13,9.53,2.12,1.78,3.95,3.27,5.58,4.6,2.11,1.72,3.94,3.21,5.67,4.74l-1.67,1.9Z"/>
      <path class="cls-1" d="M124.3,167.09c-.11,0-.22,0-.34,0-4.43-.1-9.88-2.41-14.56-6.16l-6.84-5.47,1.58-1.98,6.84,5.47c4.27,3.42,9.14,5.52,13.04,5.61,2.37.06,4.37-.61,6-1.99,2.86-2.14,4.43-4.88,4.48-7.76.05-2.77-1.34-5.49-3.8-7.45l1.58-1.98h0l5.74,4.59c2.17,1.74,4.84,2.73,7.53,2.79,3.43.08,6.61-1.34,8.66-3.9,1.73-2.15,2.5-4.91,2.19-7.76-.35-3.17-2.04-6.19-4.64-8.26h0s1.58-1.98,1.58-1.98l6.69,5.35c5.54,3.85,12.25,3.4,15.88-1.14,1.82-2.28,2.58-5.2,2.13-8.21-.46-3.03-2.09-5.81-4.59-7.83l1.59-1.97c3,2.42,4.95,5.76,5.51,9.43.55,3.72-.39,7.33-2.66,10.17-4.41,5.52-12.74,6.2-19.36,1.59l-.19-.15c.28.89.48,1.81.59,2.74.39,3.53-.58,6.94-2.73,9.63-2.55,3.18-6.45,4.97-10.69,4.85-3.12-.07-6.21-1.18-8.76-3.12.21.88.31,1.77.3,2.68-.06,3.68-1.99,7.13-5.43,9.7-1.98,1.68-4.45,2.55-7.3,2.55Z"/>
      <polygon class="cls-1" points="84.33 140.85 84.31 140.82 86.14 139.08 84.33 140.85"/>
      <path class="cls-1" d="M127.27,95.35c-5.03,0-9.59-2.82-12.4-8.07l-14.89-27.9c-3.36-6.29-4.23-11.49-2.67-15.89l.13-.37.32-.23,24.77-17.8,1.48,2.05-24.44,17.56c-1.13,3.62-.27,8.04,2.64,13.48l14.89,27.89c4.24,7.92,11.24,7.81,16.38,5.06,3.9-2.09,8.09-8.21,3.69-16.47l-8.76-16.4,2.88-16.48,2.49.43-2.73,15.63,8.35,15.63c4.67,8.76,1.06,16.78-4.72,19.89-2.49,1.33-5,1.97-7.4,1.97Z"/>
      <g>
        <path class="cls-1" d="M43.03,109.17c-.43,0-.86-.02-1.29-.06-3.6-.34-6.84-2.05-9.12-4.82-2.29-2.76-3.37-6.26-3.03-9.85.34-3.6,2.05-6.84,4.82-9.12l12.63-10.44,3.45-2.02c5.46-2.19,11.63-.62,15.37,3.91,2.1,2.53,3.2,5.75,3.08,9.07h0c-.14,3.86-1.91,7.47-4.86,9.9l-12.47,10.33c-2.43,2.02-5.43,3.1-8.56,3.1ZM48.41,77l-12.39,10.26c-2.25,1.85-3.64,4.49-3.91,7.41-.27,2.92.6,5.77,2.46,8,1.86,2.25,4.49,3.64,7.41,3.91,2.94.27,5.77-.6,8-2.46l12.47-10.33c2.39-1.97,3.83-4.91,3.94-8.04h0c.1-2.7-.79-5.31-2.5-7.36-2.97-3.6-8.04-4.91-12.39-3.22l-3.11,1.83Z"/>
        <path class="cls-1" d="M74.15,146.75c-3.88,0-7.74-1.66-10.4-4.86-4.7-5.71-3.93-14.21,1.73-18.95l12.56-10.39c5.72-4.72,14.22-3.91,18.95,1.8,2.1,2.53,3.2,5.75,3.08,9.07h0c-.14,3.86-1.91,7.47-4.86,9.91l-12.47,10.35c-2.51,2.07-5.56,3.08-8.59,3.08ZM86.6,112c-2.45,0-4.92.82-6.95,2.49l-12.55,10.39c-4.59,3.85-5.22,10.76-1.4,15.4,3.85,4.63,10.78,5.28,15.43,1.44l12.47-10.35c2.39-1.97,3.83-4.91,3.94-8.05h0c.1-2.7-.79-5.31-2.5-7.36-2.16-2.61-5.29-3.96-8.44-3.96Z"/>
        <path class="cls-1" d="M58.56,127.96c-.42,0-.85-.02-1.28-.06-3.58-.33-6.81-2.03-9.08-4.78-4.72-5.7-3.92-14.18,1.78-18.89l17.05-14.14c2.75-2.28,6.23-3.34,9.81-3.01,3.58.34,6.8,2.04,9.08,4.78,2.1,2.53,3.2,5.74,3.08,9.03h0c-.14,3.83-1.9,7.42-4.83,9.86l-17.07,14.12c-2.42,2.01-5.41,3.08-8.54,3.08ZM75.56,89.55c-2.53,0-4.95.87-6.91,2.49l-17.05,14.14c-4.63,3.83-5.27,10.71-1.44,15.33,1.85,2.23,4.46,3.61,7.37,3.88,2.91.27,5.73-.6,7.96-2.45l17.07-14.12c2.38-1.98,3.81-4.9,3.92-8.01.1-2.67-.79-5.27-2.5-7.32-1.85-2.23-4.46-3.61-7.37-3.88-.35-.03-.7-.05-1.05-.05Z"/>
        <path class="cls-1" d="M92.06,161.69c-3.64,0-7.25-1.55-9.74-4.56-2.14-2.59-3.15-5.87-2.83-9.23.32-3.36,1.92-6.39,4.51-8.53l5.98-4.96c.35-.28.69-.54,1.04-.76,5.35-3.62,12.57-2.6,16.74,2.41,1.97,2.39,2.99,5.41,2.88,8.5-.13,3.62-1.79,7.01-4.55,9.29l-5.98,4.96c-2.35,1.94-5.21,2.89-8.04,2.89ZM98.06,134.02c-1.96,0-3.93.57-5.67,1.75-.31.2-.56.4-.82.6l-5.96,4.94c-2.07,1.71-3.35,4.13-3.6,6.82-.26,2.69.55,5.32,2.26,7.38,3.55,4.28,9.93,4.88,14.22,1.34l5.98-4.96c2.21-1.82,3.54-4.53,3.64-7.43h0c.09-2.47-.73-4.89-2.3-6.79-1.99-2.39-4.85-3.65-7.75-3.65Z"/>
      </g>
      <rect class="cls-1" x="160.38" y="92.28" width="2.53" height="31.91" transform="translate(-23.02 169.42) rotate(-52.14)"/>
      <rect class="cls-1" x="140.67" y="110.16" width="2.53" height="26.87" transform="translate(-42.75 159.81) rotate(-52.14)"/>
      <rect class="cls-1" x="121.23" y="127.97" width="2.53" height="22.8" transform="translate(-62.72 150.59) rotate(-52.15)"/>
      <path class="cls-1" d="M153.31,65.25c-6.55,0-10.18-1.8-10.51-1.98l1.17-2.24-.58,1.12.58-1.12c.18.09,17.7,8.59,47.28-14.5l1.56,1.99c-17.52,13.67-30.97,16.73-39.48,16.73Z"/>
    </g>
  </g>
</svg>