<svg xmlns:xlink="http://www.w3.org/1999/xlink" xmlns="http://www.w3.org/2000/svg" viewBox="0 0 24 24" class="btn-svg" width="24" height="24">
    <path d="M18.2424 6.11888V4.40576C18.2424 4.27055 18.1887 4.14087 18.0931 4.04526C17.9975 3.94966 17.8678 3.89594 17.7326 3.89594H8.34686C8.26288 3.89594 8.18233 3.9293 8.12295 3.98869C8.06356 4.04807 8.0302 4.12862 8.0302 4.2126C8.0302 4.29658 8.06356 4.37713 8.12295 4.43651C8.18233 4.49589 8.26288 4.52926 8.34686 4.52926H17.5996V6.11254H13.0112V5.33673C13.0112 5.25275 12.9779 5.17221 12.9185 5.11282C12.8591 5.05344 12.7785 5.02008 12.6946 5.02008H11.3108C11.2268 5.02008 11.1462 5.05344 11.0869 5.11282C11.0275 5.17221 10.9941 5.25275 10.9941 5.33673V6.11254H6.40575V4.52926H7.28289C7.36687 4.52926 7.44742 4.49589 7.5068 4.43651C7.56619 4.37713 7.59955 4.29658 7.59955 4.2126C7.59955 4.12862 7.56619 4.04807 7.5068 3.98869C7.44742 3.9293 7.36687 3.89594 7.28289 3.89594H6.26959C6.13438 3.89594 6.0047 3.94966 5.90909 4.04526C5.81348 4.14087 5.75977 4.27055 5.75977 4.40576V6.11888C5.75913 6.27742 5.81797 6.43043 5.92468 6.54769C6.03138 6.66495 6.17819 6.73792 6.33609 6.75219L5.93077 9.01945C5.85119 9.46045 5.81092 9.90763 5.81044 10.3557V19.5166C5.81044 19.6728 5.87249 19.8227 5.98294 19.9331C6.0934 20.0436 6.24321 20.1056 6.39942 20.1056H17.6027C17.759 20.1056 17.9088 20.0436 18.0192 19.9331C18.1297 19.8227 18.1917 19.6728 18.1917 19.5166V12.0499C18.1917 11.9659 18.1584 11.8853 18.099 11.826C18.0396 11.7666 17.9591 11.7332 17.8751 11.7332C17.7911 11.7332 17.7105 11.7666 17.6512 11.826C17.5918 11.8853 17.5584 11.9659 17.5584 12.0499V19.4628H6.47542V10.3557C6.47574 9.94582 6.51283 9.53675 6.58625 9.13345L6.9884 6.75536H10.9909V7.70533C10.9909 7.78931 11.0243 7.86985 11.0837 7.92924C11.1431 7.98862 11.2236 8.02198 11.3076 8.02198H12.6882C12.7722 8.02198 12.8528 7.98862 12.9121 7.92924C12.9715 7.86985 13.0049 7.78931 13.0049 7.70533V6.75536H17.0138L17.4381 9.13345C17.5115 9.53675 17.5486 9.94582 17.5489 10.3557V10.9479C17.5489 11.0319 17.5823 11.1124 17.6417 11.1718C17.701 11.2312 17.7816 11.2646 17.8656 11.2646C17.9496 11.2646 18.0301 11.2312 18.0895 11.1718C18.1489 11.1124 18.1822 11.0319 18.1822 10.9479V10.3557C18.1817 9.90763 18.1415 9.46045 18.0619 9.01945L17.6661 6.75219C17.824 6.73792 17.9708 6.66495 18.0775 6.54769C18.1842 6.43043 18.243 6.27742 18.2424 6.11888ZM11.6338 5.65972H12.3684V7.395H11.6338V5.65972Z" fill="#3C1F1C"></path>
    <path d="M17.6018 20.184H6.39851C6.22156 20.1832 6.0521 20.1125 5.92697 19.9874C5.80185 19.8623 5.73119 19.6928 5.73036 19.5159V10.355C5.73069 9.90264 5.77096 9.45124 5.85069 9.006L6.24334 6.8179C6.08332 6.78372 5.93993 6.6955 5.83729 6.56806C5.73464 6.44062 5.67899 6.28173 5.67969 6.11809V4.40498C5.67969 4.24877 5.74175 4.09896 5.8522 3.9885C5.96266 3.87805 6.11247 3.81599 6.26868 3.81599H7.28198C7.3345 3.81599 7.38649 3.82643 7.43493 3.84672C7.48337 3.86701 7.52729 3.89673 7.56413 3.93416C7.60097 3.97159 7.62999 4.01597 7.64951 4.06473C7.66902 4.11349 7.67864 4.16564 7.6778 4.21815C7.67864 4.27024 7.6691 4.32198 7.64975 4.37036C7.63039 4.41873 7.6016 4.46277 7.56506 4.4999C7.52851 4.53704 7.48494 4.56653 7.43689 4.58665C7.38883 4.60678 7.33725 4.61714 7.28515 4.61714H6.48084V6.03259H10.914V5.33595C10.914 5.22929 10.9564 5.127 11.0318 5.05158C11.1072 4.97616 11.2095 4.93379 11.3162 4.93379H12.6936C12.7992 4.93546 12.8999 4.97856 12.9739 5.0538C13.048 5.12904 13.0895 5.23038 13.0895 5.33595V6.03259H17.5227V4.61714H8.33961C8.28778 4.61673 8.23654 4.60605 8.18885 4.58574C8.14116 4.56543 8.09796 4.53587 8.06176 4.49878C8.02555 4.46169 7.99704 4.41779 7.97788 4.36963C7.95872 4.32146 7.94929 4.26998 7.95013 4.21815C7.94928 4.16564 7.9589 4.11349 7.97842 4.06473C7.99793 4.01597 8.02696 3.97159 8.0638 3.93416C8.10063 3.89673 8.14455 3.86701 8.193 3.84672C8.24144 3.82643 8.29343 3.81599 8.34595 3.81599H17.7317C17.8879 3.81599 18.0377 3.87805 18.1481 3.9885C18.2586 4.09896 18.3206 4.24877 18.3206 4.40498V6.11809C18.3213 6.28173 18.2657 6.44062 18.1631 6.56806C18.0604 6.6955 17.917 6.78372 17.757 6.8179L18.1496 9.006C18.2294 9.45124 18.2696 9.90264 18.27 10.355V10.9439C18.2703 11.0445 18.2326 11.1415 18.1645 11.2154C18.0964 11.2894 18.0029 11.335 17.9027 11.3429H17.8678C17.8157 11.3438 17.764 11.3342 17.7156 11.3149C17.6672 11.2955 17.6232 11.2667 17.5861 11.2302C17.5489 11.1936 17.5194 11.1501 17.4993 11.102C17.4792 11.054 17.4688 11.0024 17.4688 10.9503V10.355C17.4683 9.95043 17.4322 9.54673 17.3612 9.1485L16.9464 6.83374H13.0895V7.71721C13.0886 7.82277 13.0463 7.92378 12.9717 7.99842C12.897 8.07307 12.796 8.11537 12.6905 8.1162H11.313C11.2069 8.1162 11.1051 8.07427 11.0298 7.99953C10.9544 7.9248 10.9117 7.82332 10.9109 7.71721V6.83374H7.05399L6.62967 9.1485C6.55859 9.54673 6.52257 9.95043 6.522 10.355V19.3829H17.4688V12.0491C17.4688 11.997 17.4792 11.9454 17.4993 11.8973C17.5194 11.8493 17.5489 11.8057 17.5861 11.7692C17.6232 11.7326 17.6672 11.7038 17.7156 11.6845C17.764 11.6651 17.8157 11.6556 17.8678 11.6564C17.9202 11.6552 17.9723 11.6644 18.021 11.6835C18.0697 11.7027 18.1142 11.7314 18.1516 11.768C18.1891 11.8046 18.2189 11.8483 18.2392 11.8966C18.2595 11.9449 18.27 11.9967 18.27 12.0491V19.5159C18.2691 19.6928 18.1985 19.8623 18.0734 19.9874C17.9482 20.1125 17.7788 20.1832 17.6018 20.184ZM7.27881 3.97432H6.26868C6.15446 3.97432 6.04492 4.0197 5.96416 4.10046C5.88339 4.18122 5.83802 4.29076 5.83802 4.40498V6.11809C5.84041 6.25518 5.89297 6.38664 5.98575 6.48759C6.07854 6.58855 6.2051 6.65198 6.34151 6.66591H6.427L5.99635 9.0345C5.91912 9.47043 5.87991 9.91225 5.87919 10.355V19.5159C5.87919 19.6511 5.9329 19.7807 6.02851 19.8763C6.12412 19.972 6.25379 20.0257 6.38901 20.0257H17.6018C17.737 20.0257 17.8667 19.972 17.9623 19.8763C18.0579 19.7807 18.1116 19.6511 18.1116 19.5159V12.0491C18.1117 12.0176 18.1053 11.9865 18.0929 11.9576C18.0805 11.9287 18.0624 11.9026 18.0395 11.881C18.0167 11.8593 17.9897 11.8426 17.9602 11.8317C17.9307 11.8209 17.8992 11.8162 17.8678 11.8179C17.8363 11.8171 17.8048 11.8226 17.7755 11.8342C17.7461 11.8458 17.7194 11.8632 17.6969 11.8854C17.6744 11.9076 17.6566 11.9341 17.6447 11.9633C17.6327 11.9925 17.6267 12.0238 17.6272 12.0554V19.5412H6.37317V10.3581C6.37322 9.94399 6.41031 9.53069 6.484 9.12317L6.92099 6.66591H11.0629V7.70771C11.0629 7.73958 11.0692 7.77114 11.0815 7.80054C11.0938 7.82995 11.1118 7.85662 11.1345 7.87901C11.1572 7.9014 11.1841 7.91906 11.2136 7.93097C11.2432 7.94287 11.2748 7.94879 11.3067 7.94837H12.6841C12.748 7.94837 12.8092 7.92301 12.8543 7.87788C12.8995 7.83275 12.9248 7.77154 12.9248 7.70771V6.66591H17.0793L17.5163 9.1105C17.59 9.51803 17.6271 9.93133 17.6272 10.3455V10.9376C17.6267 10.9684 17.6324 10.9989 17.6438 11.0275C17.6552 11.0561 17.6721 11.0822 17.6936 11.1042C17.715 11.1263 17.7406 11.1439 17.7689 11.1561C17.7972 11.1682 17.8276 11.1747 17.8583 11.1751C17.8906 11.176 17.9227 11.1703 17.9527 11.1583C17.9826 11.1464 18.0099 11.1284 18.0327 11.1056C18.0555 11.0828 18.0734 11.0556 18.0854 11.0256C18.0973 10.9956 18.103 10.9635 18.1021 10.9313V10.355C18.1014 9.91225 18.0622 9.47043 17.985 9.0345L17.5733 6.68174H17.6588C17.7963 6.66769 17.9237 6.60335 18.0167 6.50107C18.1096 6.39879 18.1615 6.26578 18.1623 6.12759V4.40498C18.1623 4.29076 18.1169 4.18122 18.0362 4.10046C17.9554 4.0197 17.8459 3.97432 17.7317 3.97432H8.34595C8.31422 3.97431 8.28281 3.98066 8.25357 3.99299C8.22434 4.00532 8.19787 4.02338 8.17573 4.04611C8.1536 4.06884 8.13624 4.09577 8.12468 4.12532C8.11313 4.15487 8.10761 4.18643 8.10845 4.21815C8.10927 4.24934 8.11623 4.28006 8.12893 4.30856C8.14163 4.33707 8.15982 4.36278 8.18247 4.38425C8.20511 4.40572 8.23176 4.42251 8.2609 4.43368C8.29004 4.44484 8.32109 4.45015 8.35228 4.44931H17.6778V6.18142H12.928V5.33595C12.9292 5.30366 12.9241 5.27145 12.9128 5.24118C12.9015 5.21091 12.8843 5.18318 12.8622 5.15961C12.8401 5.13604 12.8136 5.11709 12.7841 5.10388C12.7546 5.09066 12.7228 5.08344 12.6905 5.08262H11.313C11.2797 5.08173 11.2465 5.0877 11.2155 5.10015C11.1845 5.11261 11.1565 5.13129 11.133 5.15504C11.1096 5.17879 11.0912 5.2071 11.0792 5.23821C11.0671 5.26933 11.0616 5.3026 11.0629 5.33595V6.19092H6.31301V4.44931H7.26298C7.29456 4.44975 7.3259 4.4438 7.35512 4.43182C7.38434 4.41984 7.41084 4.40208 7.43302 4.3796C7.4552 4.35712 7.47261 4.33039 7.4842 4.30101C7.4958 4.27163 7.50133 4.24022 7.50047 4.20865C7.49981 4.14886 7.47661 4.09152 7.43552 4.04808C7.39444 4.00465 7.33847 3.97831 7.27881 3.97432ZM12.4467 7.47338H11.5537V5.57344H12.4467V7.47338ZM11.712 7.31505H12.2883V5.73177H11.712V7.31505Z" fill="#3C1F1C"></path>
</svg>