<svg xmlns:xlink="http://www.w3.org/1999/xlink" xmlns="http://www.w3.org/2000/svg" viewBox="0 0 24 24"
    class="order-here-btn-svg-close" width="36" height="36">
    <path
        d="M7.22025 7.21999C6.92692 7.51332 6.92692 7.98889 7.22025 8.28222L10.9379 11.9999L7.21999 15.7178C6.92667 16.0111 6.92667 16.4867 7.21999 16.78C7.51332 17.0733 7.98889 17.0733 8.28222 16.78L12.0001 13.0621L15.718 16.78C16.0114 17.0733 16.4869 17.0733 16.7803 16.78C17.0736 16.4867 17.0736 16.0111 16.7803 15.7178L13.0623 11.9999L16.78 8.28222C17.0733 7.98889 17.0733 7.51332 16.78 7.21999C16.4867 6.92667 16.0111 6.92667 15.7178 7.21999L12.0001 10.9377L8.28247 7.21999C7.98914 6.92667 7.51357 6.92667 7.22025 7.21999Z"
        fill="#3C1F1C"></path>
</svg>