<?xml version="1.0" encoding="UTF-8"?>
<svg id="Capa_2" data-name="Capa 2" xmlns="http://www.w3.org/2000/svg" viewBox="0 0 114.22 188.4">
  <defs>
    <style>
      .cls-1 {
        fill: #dbc7ba;
        stroke-width: 0px;
      }
    </style>
  </defs>
  <g id="Capa_1-2" data-name="Capa 1">
    <g>
      <path class="cls-1" d="M41.87,111.92h21.63c7.45,0,12.18-4.54,12.18-11.63,0-8.45-6.82-10.81-14.09-10.81h-19.72v22.44ZM41.87,82.21h17.27c9.81,0,13.81-3.54,13.81-10.36,0-9-6.36-10.26-13.81-10.26h-17.27v20.62ZM33.24,54.32h23.53c5.73,0,13.27,0,17.17,2.36,4.27,2.54,7.63,7.18,7.63,13.54,0,6.9-3.63,12.08-9.63,14.53v.18c8,1.63,12.36,7.63,12.36,15.63,0,9.54-6.82,18.62-19.71,18.62h-31.35V54.32Z"/>
      <path class="cls-1" d="M57.02,29.92C25.63,29.92.19,55.37.19,86.76s25.45,56.83,56.83,56.83,56.84-25.45,56.84-56.83-25.45-56.83-56.84-56.83M106.37,86.78c0,27.25-22.09,49.34-49.35,49.34S7.68,114.04,7.68,86.78s22.09-49.34,49.34-49.34,49.35,22.09,49.35,49.34"/>
      <rect class="cls-1" x=".31" y="155.58" width="113.44" height="7.46"/>
      <path class="cls-1" d="M107.12,146.24c.18-.41.43-.75.73-1.06.31-.3.67-.53,1.09-.71.41-.17.86-.25,1.31-.25s.91.08,1.33.25c.4.18.76.4,1.06.71.31.31.56.66.74,1.06.19.41.27.86.27,1.34s-.08.93-.27,1.34c-.17.42-.43.77-.74,1.08-.3.31-.66.54-1.06.72-.42.17-.86.25-1.33.25s-.9-.08-1.31-.25c-.41-.17-.78-.4-1.09-.72-.31-.31-.55-.66-.73-1.08-.19-.41-.27-.86-.27-1.34s.08-.93.27-1.34M107.68,148.72c.13.36.33.67.58.93.25.26.54.46.89.61.33.15.71.21,1.1.21s.77-.07,1.1-.21c.34-.15.63-.35.89-.61.24-.26.44-.57.58-.93.15-.35.22-.73.22-1.14s-.07-.79-.22-1.14c-.14-.35-.34-.66-.58-.92-.26-.25-.55-.45-.89-.6-.33-.14-.7-.22-1.1-.22s-.77.08-1.1.22c-.35.15-.64.35-.89.6-.26.26-.45.56-.58.92-.15.35-.21.72-.21,1.14s.07.79.21,1.14M110.47,145.61c.47,0,.82.09,1.04.28.23.19.35.47.35.85,0,.36-.11.61-.3.79-.21.16-.45.26-.75.3l1.13,1.74h-.66l-1.08-1.7h-.65v1.7h-.62v-3.95h1.54ZM110.2,147.37c.14,0,.27,0,.4-.01.11,0,.23-.03.33-.07.1-.05.18-.11.23-.2.06-.09.08-.21.08-.37,0-.13-.02-.24-.08-.31-.05-.08-.12-.14-.2-.18-.08-.05-.17-.08-.28-.09-.11,0-.21-.02-.31-.02h-.81v1.26h.64Z"/>
      <polygon class="cls-1" points="15.23 0 15.23 3.69 4.69 3.69 4.69 7.97 14.37 7.97 14.37 11.38 4.69 11.38 4.69 16.27 15.46 16.27 15.46 19.96 .3 19.96 .3 0 15.23 0"/>
      <path class="cls-1" d="M21.64,5.51v1.96h.05c.52-.75,1.15-1.32,1.89-1.73.74-.41,1.58-.62,2.53-.62s1.74.18,2.5.53c.75.35,1.33.98,1.72,1.87.43-.63,1.01-1.19,1.75-1.68.74-.48,1.61-.73,2.61-.73.76,0,1.47.09,2.12.28.65.19,1.21.48,1.68.89.47.41.83.95,1.09,1.61.26.66.39,1.46.39,2.39v9.67h-3.97v-8.19c0-.49-.02-.94-.06-1.37-.04-.43-.14-.8-.31-1.12-.17-.32-.42-.57-.74-.75-.33-.19-.77-.28-1.33-.28s-1.01.11-1.36.32c-.35.21-.62.49-.81.84-.2.35-.33.74-.39,1.17-.07.44-.1.88-.1,1.33v8.05h-3.97v-8.11c0-.43,0-.85-.03-1.27-.02-.42-.1-.81-.24-1.16-.14-.35-.37-.64-.7-.85-.33-.22-.81-.32-1.44-.32-.19,0-.43.04-.74.13-.31.08-.61.24-.89.48-.29.23-.54.57-.74,1.01-.21.44-.31,1.01-.31,1.72v8.39h-3.97V5.51h3.75Z"/>
      <path class="cls-1" d="M51.49,16.97c.44-.26.79-.6,1.06-1.02.27-.42.46-.91.57-1.47.11-.56.17-1.13.17-1.71s-.06-1.15-.18-1.7c-.12-.56-.32-1.06-.6-1.5-.28-.44-.64-.79-1.08-1.06-.44-.27-.97-.41-1.61-.41s-1.2.14-1.64.41c-.44.27-.79.62-1.06,1.05-.27.43-.46.92-.57,1.48-.11.56-.17,1.14-.17,1.73s.06,1.15.18,1.71c.12.56.32,1.05.59,1.47.27.42.63.76,1.08,1.02.45.26.99.39,1.62.39s1.2-.13,1.64-.39M46.33,5.51v1.85h.05c.49-.78,1.1-1.35,1.85-1.71.74-.35,1.57-.53,2.46-.53,1.14,0,2.12.22,2.94.64.82.43,1.5,1,2.04,1.71.54.71.94,1.53,1.2,2.47.26.94.39,1.93.39,2.95,0,.97-.13,1.9-.39,2.8-.26.89-.66,1.69-1.19,2.38-.53.69-1.19,1.24-1.98,1.65-.79.41-1.72.61-2.78.61-.89,0-1.72-.18-2.48-.55-.76-.36-1.37-.9-1.86-1.61h-.06v6.85h-3.97V5.51h3.77Z"/>
      <path class="cls-1" d="M63.07,5.51v2.68h.06c.19-.45.44-.86.76-1.24.32-.38.68-.71,1.09-.98.41-.27.85-.48,1.31-.63.47-.15.95-.22,1.45-.22.26,0,.55.05.87.14v3.69c-.19-.04-.41-.07-.67-.1-.26-.03-.51-.04-.75-.04-.73,0-1.34.12-1.85.36-.5.24-.91.57-1.22.99-.31.42-.53.91-.66,1.47-.13.56-.2,1.17-.2,1.82v6.51h-3.97V5.51h3.77Z"/>
      <path class="cls-1" d="M78.41,8.89c-.48-.52-1.2-.78-2.17-.78-.64,0-1.16.11-1.58.32-.42.21-.76.48-1.01.8-.25.32-.43.65-.53,1.01-.1.35-.16.67-.18.95h6.46c-.19-1.01-.52-1.77-.99-2.29M73.92,16.5c.6.58,1.45.87,2.57.87.8,0,1.49-.2,2.07-.6.58-.4.93-.82,1.06-1.27h3.5c-.56,1.73-1.42,2.97-2.57,3.72-1.16.75-2.56,1.12-4.19,1.12-1.14,0-2.16-.18-3.08-.55-.91-.36-1.69-.88-2.32-1.55-.63-.67-1.12-1.47-1.47-2.4-.34-.93-.52-1.96-.52-3.07s.18-2.09.53-3.02c.36-.93.86-1.74,1.51-2.42.65-.68,1.43-1.22,2.34-1.61.9-.39,1.91-.59,3-.59,1.23,0,2.3.24,3.21.71.91.48,1.66,1.11,2.25,1.91.59.8,1.01,1.72,1.27,2.74.26,1.03.35,2.1.28,3.22h-10.43c.05,1.29.38,2.22.98,2.8"/>
      <path class="cls-1" d="M89.06,16.37c.18.31.41.56.69.76.28.2.6.34.96.43.36.09.74.14,1.13.14.28,0,.57-.03.88-.1.31-.06.59-.17.84-.31.25-.14.46-.33.63-.56.17-.23.25-.53.25-.88,0-.6-.4-1.04-1.19-1.34-.79-.3-1.9-.6-3.31-.89-.58-.13-1.14-.29-1.69-.46-.55-.18-1.04-.41-1.47-.7-.43-.29-.77-.65-1.03-1.09-.26-.44-.39-.97-.39-1.61,0-.93.18-1.7.54-2.29.36-.6.84-1.07,1.44-1.41.6-.35,1.27-.59,2.01-.73.75-.14,1.51-.21,2.29-.21s1.54.07,2.28.22c.74.15,1.39.4,1.97.75.58.35,1.06.83,1.44,1.41.38.59.61,1.33.69,2.22h-3.78c-.06-.76-.34-1.28-.87-1.55-.52-.27-1.14-.41-1.84-.41-.22,0-.47.02-.73.04s-.5.09-.71.18c-.22.09-.4.23-.55.41-.15.18-.22.42-.22.71,0,.35.13.64.39.87.26.22.6.41,1.02.55.42.14.9.27,1.44.38.54.11,1.09.23,1.65.36.58.13,1.14.29,1.69.47.55.19,1.04.43,1.47.74.43.31.77.69,1.03,1.15.26.46.39,1.02.39,1.69,0,.95-.19,1.75-.57,2.39-.38.64-.88,1.16-1.5,1.55-.62.39-1.32.67-2.11.82-.79.16-1.6.24-2.42.24s-1.66-.08-2.46-.25c-.8-.17-1.51-.45-2.14-.84-.62-.39-1.14-.91-1.54-1.55-.4-.64-.62-1.45-.66-2.42h3.78c0,.43.09.8.27,1.1"/>
      <path class="cls-1" d="M109.11,13.24c-.25.08-.52.15-.81.21-.29.06-.59.1-.91.14-.32.04-.63.08-.95.14-.3.06-.59.13-.88.22-.29.09-.54.22-.76.38-.21.16-.39.36-.52.6-.13.24-.2.55-.2.92s.06.65.2.89c.13.24.31.44.53.57.22.14.48.24.78.29.3.05.61.08.92.08.78,0,1.39-.13,1.82-.39.43-.26.75-.57.95-.94.2-.36.33-.73.38-1.1.05-.37.07-.67.07-.89v-1.48c-.17.15-.38.27-.63.35M101.27,7.63c.41-.62.93-1.11,1.57-1.48.63-.37,1.35-.64,2.14-.8.79-.16,1.59-.24,2.39-.24.73,0,1.46.05,2.21.15.75.1,1.43.3,2.04.6.61.3,1.12.71,1.51,1.24.39.53.59,1.23.59,2.11v7.52c0,.65.04,1.28.11,1.87.07.6.2,1.04.39,1.34h-4.03c-.08-.22-.14-.45-.18-.68-.05-.23-.08-.47-.1-.71-.63.65-1.38,1.11-2.24,1.37-.86.26-1.73.39-2.63.39-.69,0-1.33-.08-1.93-.25-.6-.17-1.12-.43-1.57-.78-.45-.35-.8-.8-1.05-1.34-.25-.54-.38-1.18-.38-1.93,0-.82.14-1.5.43-2.03.29-.53.66-.95,1.12-1.27.46-.32.98-.55,1.57-.71.59-.16,1.18-.28,1.78-.38.6-.09,1.18-.17,1.76-.22s1.09-.14,1.54-.25c.45-.11.8-.28,1.06-.49.26-.21.38-.53.36-.94,0-.43-.07-.77-.21-1.02-.14-.25-.33-.45-.56-.59-.23-.14-.5-.23-.81-.28-.31-.05-.64-.07-.99-.07-.78,0-1.4.17-1.85.5-.45.33-.71.89-.78,1.68h-3.97c.06-.93.29-1.71.7-2.32"/>
      <path class="cls-1" d="M11.13,176.13c-.21-.34-.48-.64-.8-.9-.32-.26-.68-.46-1.08-.6-.4-.14-.82-.22-1.26-.22-.8,0-1.49.16-2.05.47-.56.31-1.02.73-1.36,1.25-.35.52-.6,1.12-.76,1.79-.16.67-.24,1.36-.24,2.07s.08,1.35.24,1.99c.16.65.41,1.23.76,1.74.35.52.8.93,1.36,1.24.56.31,1.24.47,2.05.47,1.09,0,1.95-.33,2.56-1,.61-.67.99-1.55,1.13-2.64h3.46c-.09,1.02-.33,1.94-.71,2.76-.38.82-.88,1.52-1.5,2.09-.62.58-1.35,1.02-2.19,1.32-.83.3-1.75.45-2.75.45-1.24,0-2.36-.21-3.36-.65-.99-.43-1.83-1.03-2.52-1.79-.68-.76-1.21-1.65-1.57-2.67-.36-1.02-.55-2.13-.55-3.31s.18-2.34.55-3.38c.36-1.04.89-1.95,1.57-2.72.68-.77,1.52-1.38,2.52-1.82.99-.44,2.11-.66,3.36-.66.9,0,1.74.13,2.54.39.8.26,1.51.64,2.14,1.13.63.5,1.15,1.1,1.56,1.83.41.73.67,1.56.77,2.5h-3.46c-.06-.41-.2-.79-.41-1.13"/>
      <path class="cls-1" d="M23.69,179.03c-.39-.43-.98-.64-1.76-.64-.52,0-.94.09-1.29.26-.34.18-.61.39-.82.65-.21.26-.35.53-.43.82-.08.29-.13.55-.15.77h5.26c-.15-.82-.42-1.44-.81-1.87M20.04,185.22c.49.47,1.18.71,2.09.71.65,0,1.21-.16,1.68-.49.47-.33.76-.67.87-1.04h2.84c-.45,1.41-1.15,2.42-2.09,3.03-.94.61-2.08.91-3.41.91-.93,0-1.76-.15-2.5-.44-.74-.3-1.37-.72-1.89-1.26-.52-.55-.91-1.2-1.19-1.96-.28-.76-.42-1.59-.42-2.5s.14-1.7.43-2.46c.29-.76.7-1.42,1.23-1.97.53-.55,1.16-.99,1.9-1.31.73-.32,1.55-.48,2.45-.48,1,0,1.87.19,2.62.58.74.39,1.35.91,1.83,1.56.48.65.82,1.4,1.04,2.23.21.83.29,1.71.23,2.62h-8.49c.05,1.05.31,1.81.8,2.27"/>
      <path class="cls-1" d="M31.83,176.27v2.19h.05c.15-.36.36-.7.61-1.01.26-.31.55-.58.89-.8.33-.22.69-.39,1.07-.51.38-.12.77-.18,1.18-.18.21,0,.45.04.71.11v3c-.15-.03-.33-.06-.55-.08-.21-.02-.42-.03-.62-.03-.59,0-1.09.1-1.5.3-.41.2-.74.47-.99.81-.25.34-.43.74-.54,1.19-.11.45-.16.95-.16,1.48v5.3h-3.23v-11.77h3.07Z"/>
      <path class="cls-1" d="M44.75,176.27v2.16h-2.37v5.83c0,.55.09.91.27,1.09.18.18.55.27,1.09.27.18,0,.36,0,.52-.02.17-.01.33-.04.48-.07v2.5c-.27.05-.58.08-.91.09-.33.02-.66.02-.98.02-.5,0-.97-.03-1.42-.1-.45-.07-.84-.2-1.18-.4-.34-.2-.61-.48-.81-.84-.2-.36-.3-.84-.3-1.43v-6.94h-1.96v-2.16h1.96v-3.53h3.23v3.53h2.37Z"/>
      <path class="cls-1" d="M49.84,188.04h-3.23v-11.77h3.23v11.77ZM46.6,171.79h3.23v2.66h-3.23v-2.66Z"/>
      <path class="cls-1" d="M51.22,178.44v-2.16h1.93v-.91c0-1.05.33-1.9.98-2.57.65-.67,1.64-1,2.96-1,.29,0,.58.01.86.04.29.02.57.04.84.06v2.41c-.38-.05-.77-.07-1.18-.07-.44,0-.76.1-.94.31-.19.2-.29.55-.29,1.04v.7h2.23v2.16h-2.23v9.6h-3.23v-9.6h-1.93Z"/>
      <path class="cls-1" d="M63.44,188.04h-3.23v-11.77h3.23v11.77ZM60.21,171.79h3.23v2.66h-3.23v-2.66Z"/>
      <path class="cls-1" d="M70.7,178.39c-.52,0-.95.12-1.3.35-.35.23-.63.54-.85.91-.22.37-.38.78-.47,1.23-.09.45-.14.89-.14,1.33s.05.86.14,1.3c.09.44.24.84.44,1.19.2.36.48.65.83.88.35.23.77.34,1.27.34.77,0,1.37-.22,1.79-.65.42-.43.68-1.01.78-1.74h3.12c-.21,1.56-.82,2.75-1.82,3.57-1,.82-2.28,1.23-3.85,1.23-.88,0-1.69-.15-2.42-.44-.74-.3-1.36-.71-1.88-1.24-.52-.53-.92-1.16-1.21-1.9-.29-.74-.43-1.54-.43-2.42s.13-1.76.4-2.54c.27-.78.66-1.46,1.17-2.03.52-.57,1.15-1.01,1.89-1.33.74-.32,1.59-.48,2.55-.48.7,0,1.37.09,2.01.27.65.18,1.22.46,1.73.83.51.37.92.83,1.24,1.39.32.56.5,1.21.55,1.97h-3.16c-.21-1.35-1.01-2.02-2.39-2.02"/>
      <path class="cls-1" d="M84.5,182.57c-.2.07-.42.13-.66.17-.24.05-.48.08-.74.11-.26.03-.52.07-.77.11-.24.05-.48.11-.72.18-.24.08-.44.18-.62.31-.17.13-.31.29-.42.49-.11.2-.16.45-.16.75s.05.53.16.73c.11.2.25.35.43.47.18.12.39.19.64.24.24.05.49.07.75.07.64,0,1.13-.11,1.48-.32.35-.21.61-.47.77-.76.17-.3.27-.59.31-.9.04-.3.06-.54.06-.73v-1.21c-.14.12-.31.22-.51.28M78.12,178c.33-.5.76-.9,1.27-1.21.51-.3,1.1-.52,1.74-.65.65-.13,1.3-.19,1.95-.19.59,0,1.19.04,1.8.13.61.08,1.16.25,1.66.49.5.24.91.58,1.23,1.01.32.43.48,1.01.48,1.72v6.12c0,.53.03,1.04.09,1.52.06.49.17.85.32,1.09h-3.28c-.06-.18-.11-.37-.15-.56-.04-.19-.06-.38-.08-.58-.52.53-1.12.9-1.82,1.12-.7.21-1.41.32-2.14.32-.56,0-1.08-.07-1.57-.21-.49-.13-.91-.35-1.27-.64-.36-.29-.65-.65-.85-1.09-.2-.44-.31-.96-.31-1.57,0-.67.12-1.22.35-1.65.24-.43.54-.78.91-1.03.37-.26.8-.45,1.27-.58.48-.13.96-.23,1.45-.31.49-.08.96-.14,1.43-.18.47-.05.89-.12,1.25-.21s.65-.22.86-.4c.21-.17.31-.43.3-.76,0-.35-.06-.63-.17-.83-.11-.2-.27-.36-.45-.48-.19-.12-.41-.19-.66-.23-.25-.04-.52-.06-.81-.06-.64,0-1.14.14-1.5.41-.36.27-.58.73-.64,1.37h-3.23c.05-.76.24-1.39.57-1.89"/>
      <path class="cls-1" d="M98.05,180.72c-.09-.45-.25-.84-.47-1.18-.22-.34-.5-.62-.85-.83-.35-.21-.79-.32-1.32-.32s-.98.11-1.34.32c-.36.21-.66.49-.88.84-.22.35-.38.75-.48,1.2-.1.45-.15.91-.15,1.4,0,.45.05.91.16,1.36.11.46.28.86.51,1.22.24.36.53.65.89.86.36.22.78.33,1.29.33.53,0,.97-.11,1.33-.32.36-.21.64-.5.85-.85.21-.35.36-.76.45-1.22.09-.46.14-.93.14-1.41s-.05-.95-.14-1.4M98.19,186.54c-.38.64-.88,1.1-1.49,1.38-.61.28-1.31.42-2.08.42-.88,0-1.65-.17-2.32-.51-.67-.34-1.22-.81-1.65-1.39-.43-.58-.76-1.25-.98-2.01-.22-.76-.33-1.55-.33-2.37s.11-1.55.33-2.29c.22-.74.55-1.39.98-1.95.43-.56.98-1.01,1.63-1.35.65-.34,1.41-.51,2.27-.51.7,0,1.36.15,1.99.44.63.3,1.13.73,1.49,1.31h.05v-5.92h3.23v16.25h-3.07v-1.5h-.05Z"/>
      <path class="cls-1" d="M110.07,182.57c-.21.07-.43.13-.66.17-.24.05-.48.08-.74.11-.26.03-.52.07-.77.11-.24.05-.48.11-.72.18-.24.08-.44.18-.62.31-.17.13-.31.29-.42.49-.11.2-.16.45-.16.75s.05.53.16.73c.11.2.25.35.43.47.18.12.39.19.64.24.24.05.49.07.75.07.64,0,1.13-.11,1.48-.32.35-.21.61-.47.77-.76.17-.3.27-.59.31-.9.04-.3.06-.54.06-.73v-1.21c-.14.12-.31.22-.51.28M103.69,178c.33-.5.76-.9,1.27-1.21.52-.3,1.1-.52,1.74-.65.65-.13,1.29-.19,1.95-.19.59,0,1.19.04,1.8.13.61.08,1.16.25,1.66.49.5.24.91.58,1.23,1.01.32.43.48,1.01.48,1.72v6.12c0,.53.03,1.04.09,1.52.06.49.17.85.32,1.09h-3.28c-.06-.18-.11-.37-.15-.56-.04-.19-.06-.38-.08-.58-.52.53-1.12.9-1.82,1.12-.7.21-1.41.32-2.14.32-.56,0-1.09-.07-1.57-.21-.49-.13-.91-.35-1.28-.64-.36-.29-.65-.65-.85-1.09-.2-.44-.31-.96-.31-1.57,0-.67.12-1.22.35-1.65.23-.43.54-.78.91-1.03.37-.26.8-.45,1.27-.58.48-.13.96-.23,1.44-.31.49-.08.96-.14,1.43-.18.47-.05.89-.12,1.25-.21.36-.09.65-.22.86-.4.21-.17.31-.43.3-.76,0-.35-.06-.63-.17-.83-.11-.2-.27-.36-.45-.48-.19-.12-.41-.19-.66-.23-.25-.04-.52-.06-.81-.06-.64,0-1.14.14-1.5.41-.36.27-.58.73-.64,1.37h-3.23c.05-.76.24-1.39.57-1.89"/>
    </g>
  </g>
</svg>