<?xml version="1.0" encoding="UTF-8"?>
<svg id="Capa_2" data-name="Capa 2" xmlns="http://www.w3.org/2000/svg" viewBox="0 0 79.34 79.33">
  <defs>
    <style>
      .cls-1 {
        fill: #dbc7ba;
        stroke-width: 0px;
      }
    </style>
  </defs>
  <g id="Capa_1-2" data-name="Capa 1">
    <path class="cls-1" d="M43.43.16c-.88-.08-1.8-.13-2.91-.16h-.26s-.05.25-.05.25c-1.27,6.33-7.07,10.63-13.5,10.02-.53-.05-1.09-.14-1.65-.27l-.47-.11.09.47c.16.8.2,1.62.12,2.42-.44,4.61-4.54,8-9.15,7.56-.25-.02-.52-.06-.8-.12l-.32-.06-.05.32c-.61,3.97-4.21,6.78-8.2,6.4-1.2-.11-2.33-.51-3.36-1.16l-.33-.21-.14.37c-1.19,3.22-1.96,6.59-2.29,10.01-2.07,21.78,13.96,41.18,35.73,43.25,21.78,2.07,41.18-13.96,43.25-35.73C81.24,21.64,65.21,2.24,43.43.16ZM30.11,59.34c-1.97-.02-3.94-.02-5.91,0-.32,0-.41-.08-.41-.4,0-7.01,0-14.03,0-21.05,0-.29.07-.39.38-.39,2,.01,3.99.02,5.99,0,.38,0,.44.15.43.47,0,3.49,0,6.99,0,10.48s0,6.93,0,10.39c0,.39-.09.5-.49.5ZM27.2,34.49c-2.14,0-3.92-1.77-3.93-3.91,0-2.17,1.77-3.95,3.94-3.95,2.15,0,3.92,1.77,3.93,3.91,0,2.18-1.76,3.95-3.93,3.95ZM56.07,58.89c0,.36-.1.45-.45.45-1.97-.02-3.94-.02-5.91,0-.35,0-.42-.1-.42-.43.01-3.64.01-7.27,0-10.91,0-.91-.06-1.82-.32-2.71-.47-1.63-1.64-2.46-3.35-2.37-2.34.12-3.55,1.28-3.85,3.65-.07.57-.1,1.13-.1,1.71,0,3.54,0,7.07,0,10.61,0,.35-.09.46-.45.45-1.98-.02-3.97-.02-5.95,0-.32,0-.41-.08-.41-.41,0-7,0-14.01,0-21.01,0-.35.11-.43.44-.42,1.88.01,3.77.02,5.65,0,.35,0,.44.11.43.44-.02.84,0,1.67,0,2.51.45-.51.83-1.03,1.3-1.47,1.43-1.35,3.13-2.03,5.11-2.02,1.09,0,2.17.09,3.22.39,2.4.69,3.8,2.35,4.46,4.69.5,1.76.59,3.57.59,5.38,0,3.82-.01,7.65,0,11.47Z"/>
  </g>
</svg>