<?xml version="1.0" encoding="UTF-8"?>
<svg id="Capa_2" data-name="Capa 2" xmlns="http://www.w3.org/2000/svg" viewBox="0 0 81.54 81.54">
  <defs>
    <style>
      .cls-1 {
        fill: #663d20;
      }

      .cls-1, .cls-2 {
        stroke-width: 0px;
      }

      .cls-2 {
        fill: #fff0e7;
      }
    </style>
  </defs>
  <g id="Capa_1-2" data-name="Capa 1">
    <g>
      <circle class="cls-1" cx="40.77" cy="40.77" r="40.77"/>
      <path class="cls-2" d="M40.77,78.84c-20.99,0-38.07-17.08-38.07-38.07S19.78,2.7,40.77,2.7s38.07,17.08,38.07,38.07-17.08,38.07-38.07,38.07ZM40.77,3.12C20.01,3.12,3.12,20.01,3.12,40.77s16.89,37.65,37.65,37.65,37.65-16.89,37.65-37.65S61.53,3.12,40.77,3.12Z"/>
      <g>
        <path class="cls-2" d="M28.59,13.91c-.46-.07-.99.05-1.6.34l-1.5.72,2.06,4.3.98-.47-.67-1.39.52-.25c.6-.29,1.03-.64,1.26-1.04s.23-.85-.01-1.35c-.24-.5-.59-.79-1.05-.86ZM28,16.36l-.52.25-.63-1.31.52-.25c.68-.33,1.03-.26,1.25.2.23.47.05.78-.63,1.11Z"/>
        <polygon class="cls-2" points="34.26 15.75 34.04 14.72 35.89 14.33 35.71 13.44 33.86 13.82 33.66 12.88 35.95 12.4 35.76 11.51 32.42 12.2 33.38 16.87 36.73 16.17 36.54 15.28 34.26 15.75"/>
        <path class="cls-2" d="M41.19,11.24l-1.7-.07-.19,4.77,1.7.07c1.64.06,2.45-.86,2.51-2.29s-.69-2.41-2.33-2.48ZM41.02,15.12l-.6-.02.12-2.99.6.02c1.07.04,1.29.82,1.26,1.55-.03.73-.3,1.49-1.37,1.44Z"/>
        <polygon class="cls-2" points="46.77 12.62 47.41 12.79 46.55 16.05 45.91 15.88 45.73 16.56 48.05 17.17 48.23 16.49 47.6 16.33 48.46 13.07 49.1 13.24 49.28 12.56 46.95 11.95 46.77 12.62"/>
        <path class="cls-2" d="M55.36,15.64c-.22-.41-.63-.77-1.23-1.08l-1.48-.77-2.21,4.23.96.5.71-1.36.64.34.17,1.82,1.11.58-.26-2.12c.31.04.6,0,.86-.11.27-.11.49-.33.66-.67.26-.5.28-.94.06-1.35ZM54.3,16.48c-.24.47-.59.51-1.26.16l-.51-.26.67-1.29.51.26c.67.35.83.67.59,1.13Z"/>
      </g>
      <g>
        <path class="cls-2" d="M26.38,66l.98.51.66-.63,1.66.86-.13.9,1.01.52.63-5.05-1.06-.55-3.75,3.44ZM29.82,65.88l-1.19-.62,1.52-1.48-.32,2.1Z"/>
        <path class="cls-2" d="M36.97,64.82c-1.53-.24-2.43.63-2.66,2.08-.23,1.46.37,2.56,1.9,2.8.42.07.79.04,1.12-.06l.53.72.74-.53-.48-.65c.39-.37.64-.89.75-1.56.23-1.46-.37-2.56-1.9-2.8ZM37.76,67.44c-.06.35-.15.65-.28.87l-.49-.68-.72.52.48.65c-.12.02-.26.01-.4-.01-.95-.15-1.05-.98-.93-1.72s.47-1.47,1.41-1.33c.95.15,1.05.95.94,1.7Z"/>
        <path class="cls-2" d="M45.79,64.51l-1.07.18.48,2.82c.07.39.04.67-.09.85s-.36.3-.68.35c-.32.05-.58.02-.76-.11-.18-.13-.3-.39-.37-.78l-.48-2.82-1.07.18.5,2.93c.11.65.37,1.1.78,1.33.41.23.93.3,1.56.19.63-.11,1.1-.34,1.41-.69.31-.36.41-.86.3-1.51l-.5-2.93Z"/>
        <polygon class="cls-2" points="49.45 60.98 48.44 61.45 48.42 62.83 48.85 62.62 49.45 60.98"/>
        <polygon class="cls-2" points="51.94 66.37 51.34 66.65 49.91 63.59 50.51 63.32 50.21 62.68 48.03 63.7 48.33 64.33 48.93 64.05 50.35 67.11 49.76 67.39 50.05 68.02 52.23 67.01 51.94 66.37"/>
      </g>
      <g>
        <path class="cls-2" d="M37.92,52.81c-.2,0-.4.08-.54.22-.14.14-.22.34-.22.54s.08.4.22.54c.14.14.34.22.54.22s.4-.08.54-.22.22-.34.22-.54-.08-.4-.22-.54c-.14-.14-.34-.22-.54-.22"/>
        <path class="cls-2" d="M53.05,40.07l-1.77-7.99c.48-.06.9-.31,1.2-.66.35.22.76.35,1.2.35h1.52c.42,0,.76-.34.76-.76v-3.04c0-.42-.34-.76-.76-.76h-1.52c-.46,0-.88.14-1.24.37-.35-.39-.86-.64-1.42-.64h-4.48c-.81,0-1.49.51-1.77,1.22h-1.8c-1.09,0-1.97.89-1.97,1.97s.89,1.97,1.97,1.97h3.91v1.53c0,.42.34.76.76.76s.76-.34.76-.76v-1.53h1.33l1.91,8.61-3.61,6.43c-.39.7-1.14,1.13-1.94,1.13h-9.01c-.38-3.16-3.07-5.62-6.33-5.62-1.44,0-2.8.47-3.94,1.36,0,0,0,0,0,0-1.35,1.06-2.2,2.58-2.39,4.26h-1.56c.1-5.46,4.57-9.87,10.05-9.87h5.39c.43,0,.77.35.77.77v6.82c0,.42.34.76.76.76h4.04c1.65,0,3.17-.9,3.96-2.34.37-.67.56-1.42.56-2.19v-2.52c0-.42-.33-.76-.75-.76h0c-.42,0-.76.34-.76.76v2.52c0,.51-.13,1.01-.38,1.45-.53.96-1.54,1.55-2.63,1.55h-3.28v-6.06c0-.39-.1-.76-.27-1.08.68-.39,1.14-1.13,1.14-1.97,0-1.26-1.02-2.28-2.28-2.28h-2.77c-.27,0-.52.05-.76.13v-6.66c0-1.26-1.02-2.28-2.28-2.28h-4.9c-3.55,0-6.5,2.61-7.05,6.01-.02.07-.04.15-.04.23,0,0,0,0,0,.01-.04.29-.06.59-.06.89v3.95c0,1.14.84,2.09,1.94,2.25l1.68,1.68c-2.23,2.11-3.62,5.1-3.62,8.4v.57c0,.42.34.76.76.76h4.27s-.02.1-.02.15c0,1.1.41,2.11,1.08,2.88h-5.33c-.42,0-.76.34-.76.76s.34.76.76.76h8.57s.06,0,.09,0c2.43,0,4.4-1.98,4.4-4.4,0-.05,0-.1-.02-.15h10.95c1.2,0,2.31-.57,3.01-1.52h.96c-.22.53-.33,1.09-.33,1.67,0,1.1.41,2.11,1.08,2.88h-9.85c-.42,0-.76.34-.76.76s.34.76.76.76h13.08s.06,0,.09,0c2.43,0,4.4-1.98,4.4-4.4,0-.58-.11-1.15-.33-1.67h1.24c.42,0,.76-.34.76-.76,0-4.01-3.19-7.29-7.16-7.43M36.4,35.35h2.77c.42,0,.76.34.76.76s-.34.76-.76.76h-2.77c-.42,0-.76-.34-.76-.76s.34-.76.76-.76M22.85,32.16s0-.09,0-.14h8.31c.42,0,.76-.34.76-.76s-.34-.76-.76-.76h-8.06c.71-2.29,2.85-3.96,5.37-3.96h4.9c.42,0,.76.34.76.76v8.81c0,.42-.34.76-.76.76h-9.76c-.42,0-.76-.34-.76-.76v-3.95ZM25.44,38.39h1.74c-.36.21-.72.44-1.06.68l-.68-.68ZM33.63,49.93c0,1.58-1.28,2.87-2.86,2.88-.01,0-.02,0-.03,0h-.09c-1.55-.05-2.8-1.32-2.8-2.88,0-.05,0-.1-.01-.15h5.8s-.01.1-.01.15M25.94,48.26c.19-1.21.82-2.3,1.8-3.06,0,0,0,0,0,0,.86-.68,1.9-1.03,3-1.03,2.42,0,4.44,1.78,4.8,4.1h-9.61ZM53.68,28.72h.76v1.52h-.76c-.42,0-.76-.34-.76-.76s.34-.76.76-.76M42.52,30.11c0-.25.2-.46.46-.46h1.67v.53c0,.13.01.26.04.38h-1.71c-.25,0-.46-.2-.46-.46M47.64,30.57h-1.1c-.21,0-.38-.17-.38-.38v-1.37c0-.21.17-.38.38-.38h4.48c.21,0,.38.17.38.38v1.37c0,.21-.17.38-.38.38h-3.38ZM57.02,49.93c0,1.58-1.28,2.87-2.86,2.88,0,0-.02,0-.03,0h-.09c-1.55-.05-2.8-1.32-2.8-2.88,0-.6.19-1.19.53-1.67h4.7c.35.49.53,1.07.53,1.67M49.98,46.74l2.9-5.16c2.96.05,5.39,2.29,5.76,5.16h-8.66Z"/>
        <path class="cls-2" d="M47.64,37.42c.42,0,.76-.34.76-.76s-.34-.76-.76-.76h0c-.42,0-.76.34-.76.76s.34.76.76.76"/>
      </g>
      <g>
        <path class="cls-2" d="M73.7,39.49c-.34,0-.66.14-.9.37-.24.24-.37.57-.37.9s.14.66.37.9c.24.24.57.37.9.37s.66-.14.9-.37.37-.56.37-.9-.14-.66-.37-.9c-.24-.24-.57-.37-.9-.37"/>
        <path class="cls-2" d="M7.84,39.49c-.34,0-.66.14-.9.37-.24.24-.37.57-.37.9s.14.66.37.9c.24.24.57.37.9.37s.66-.14.9-.37.37-.56.37-.9-.14-.66-.37-.9c-.24-.24-.57-.37-.9-.37"/>
      </g>
    </g>
  </g>
</svg>