<svg xmlns:xlink="http://www.w3.org/1999/xlink" xmlns="http://www.w3.org/2000/svg" viewBox="0 0 77 77" class="order-here-btn-svg" width="80"  height="80" >
	<path d="M11 38C11 38.5523 10.5523 39 10 39C9.44772 39 9 38.5523 9 38C9 37.4477 9.44772 37 10 37C10.5523 37 11 37.4477 11 38Z" fill="#3C1F1C"></path>
	<path d="M68 38C68 38.5523 67.5523 39 67 39C66.4477 39 66 38.5523 66 38C66 37.4477 66.4477 37 67 37C67.5523 37 68 37.4477 68 38Z" fill="#3C1F1C"></path>
	<path d="M26.0202 16.3318L27.2598 15.872L26.6081 14.1152L27.2718 13.869C28.8041 13.3006 29.5275 12.3772 29.0568 11.1084C28.5861 9.83955 27.4356 9.61127 25.9032 10.1797L24 10.8857L26.0202 16.3318ZM26.2316 13.1002L25.6161 11.4409L26.27 11.1984C27.1289 10.8798 27.5512 11.0007 27.7685 11.5863C27.9893 12.1816 27.7444 12.539 26.8855 12.8576L26.2316 13.1002Z" fill="#3C1F1C"></path>
	<path d="M31.4089 14.4995L35.526 13.8765L35.3594 12.7751L32.5494 13.2004L32.3563 11.924L34.631 11.5798L34.4644 10.4785L32.1896 10.8227L32.0136 9.65962L34.8236 9.23441L34.6569 8.13308L30.5398 8.7561L31.4089 14.4995Z" fill="#3C1F1C"></path>
	<path d="M37.0641 13.7932L39.1302 13.9449C41.1235 14.0912 42.1537 12.9978 42.281 11.264C42.4083 9.53022 41.5489 8.29806 39.5555 8.1517L37.4895 8L37.0641 13.7932ZM38.4619 12.8103L38.7287 9.17655L39.4555 9.22991C40.7532 9.3252 40.9857 10.2817 40.9209 11.1642C40.8561 12.0466 40.4864 12.9589 39.1887 12.8636L38.4619 12.8103Z" fill="#3C1F1C"></path>
	<path d="M42.8404 14.3863L45.6695 15.13L45.8865 14.3044L45.1113 14.1006L46.154 10.1338L46.9292 10.3376L47.1462 9.51204L44.3171 8.76837L44.1001 9.59395L44.8754 9.79773L43.8326 13.7645L43.0574 13.5607L42.8404 14.3863Z" fill="#3C1F1C"></path>
	<path d="M47.0867 15.6006L48.2884 16.1517L49.0695 14.4485L49.8738 14.8173L50.1904 17.0239L51.5719 17.6575L51.1221 15.092C51.8741 15.1505 52.5452 14.8857 52.9271 14.053C53.4912 12.8229 52.8388 11.848 51.3532 11.1667L49.5081 10.3206L47.0867 15.6006ZM49.5208 13.4644L50.2585 11.8557L50.8925 12.1465C51.7252 12.5283 51.9384 12.9124 51.6781 13.4802C51.4134 14.0574 50.9875 14.137 50.1548 13.7551L49.5208 13.4644Z" fill="#3C1F1C"></path>
	<path fill-rule="evenodd" clip-rule="evenodd" d="M38.5 3.5C19.17 3.5 3.5 19.17 3.5 38.5C3.5 57.83 19.17 73.5 38.5 73.5C57.83 73.5 73.5 57.83 73.5 38.5C73.5 19.17 57.83 3.5 38.5 3.5ZM2.5 38.5C2.5 18.6177 18.6177 2.5 38.5 2.5C58.3823 2.5 74.5 18.6177 74.5 38.5C74.5 58.3823 58.3823 74.5 38.5 74.5C18.6177 74.5 2.5 58.3823 2.5 38.5Z" fill="#3C1F1C"></path>
	<path d="M28.0001 68.0861L29.2879 68.4667L29.9253 67.5587L32.1117 68.2049L32.1631 69.3164L33.4908 69.7089L33.0907 63.5334L31.693 63.1204L28.0001 68.0861ZM30.5181 66.6918L31.9901 64.5759L32.0854 67.155L30.5181 66.6918Z" fill="#3C1F1C"></path>
	<path d="M37.2201 70.1129C37.7291 70.1464 38.1826 70.0718 38.5785 69.9205L39.2967 70.7397L40.1374 70.0124L39.4871 69.2708C39.9153 68.7877 40.1687 68.1054 40.222 67.2951C40.34 65.4981 39.4946 64.2324 37.6145 64.1089C35.7343 63.9854 34.7307 65.1296 34.6126 66.9267C34.4946 68.7238 35.34 69.9894 37.2201 70.1129ZM37.2931 69.0015C36.1297 68.925 35.9134 67.9302 35.9734 67.0161C36.0335 66.102 36.376 65.1751 37.5394 65.2515C38.7028 65.3279 38.9212 66.2916 38.8612 67.2058C38.8318 67.6524 38.7456 68.0119 38.6123 68.2952L37.9433 67.521L37.1248 68.2288L37.775 68.9705C37.6269 69.0025 37.4697 69.0131 37.2931 69.0015Z" fill="#3C1F1C"></path>
	<path d="M42.0712 67.8784C42.3492 69.4678 43.3905 69.9832 44.9286 69.7141C46.4565 69.4469 47.2712 68.6069 46.9932 67.0174L46.3708 63.4592L45.0685 63.687L45.6676 67.1119C45.8308 68.0451 45.5209 68.448 44.7313 68.5862C43.9417 68.7243 43.5134 68.4505 43.3501 67.5173L42.751 64.0924L41.4487 64.3202L42.0712 67.8784Z" fill="#3C1F1C"></path>
	<path d="M49.1873 68.6018L51.926 67.5742L51.6262 66.775L50.8757 67.0566L49.4348 63.2165L50.1853 62.9349L49.8854 62.1357L47.1466 63.1633L47.4465 63.9625L48.197 63.6809L49.6379 67.521L48.8874 67.8026L49.1873 68.6018ZM47.6983 62.1446L48.2442 61.9398L49.1174 60L47.8503 60.4754L47.6983 62.1446Z" fill="#3C1F1C"></path>
	<path d="M26.8469 33.3874C26.7753 33.3875 26.7059 33.4123 26.6506 33.4578C26.5952 33.5032 26.5573 33.5665 26.5433 33.6367C26.5293 33.7069 26.5401 33.7798 26.5738 33.843C26.6074 33.9062 26.662 33.9558 26.7281 33.9834C26.7942 34.0109 26.8678 34.0147 26.9364 33.9941C27.005 33.9735 27.0643 33.9298 27.1043 33.8704C27.1443 33.811 27.1625 33.7396 27.1558 33.6683C27.1491 33.597 27.1179 33.5302 27.0676 33.4793C27.0088 33.4211 26.9296 33.3882 26.8469 33.3874Z" fill="#3C1F1C"></path>
	<path d="M47.9696 38.7967L46.6105 32.6461C46.9654 32.5983 47.2909 32.4233 47.5264 32.1536C47.8049 32.3293 48.1279 32.4216 48.4571 32.4195H49.6243C49.7784 32.4195 49.9262 32.3583 50.0351 32.2493C50.1441 32.1404 50.2053 31.9926 50.2053 31.8384V29.4845C50.2053 29.3304 50.1441 29.1826 50.0351 29.0736C49.9262 28.9647 49.7784 28.9034 49.6243 28.9034H48.4571C48.1182 28.9063 47.7876 29.0091 47.5067 29.1989C47.369 29.045 47.2006 28.9216 47.0123 28.8368C46.824 28.752 46.62 28.7076 46.4135 28.7065H42.9664C42.6722 28.7081 42.3852 28.7976 42.1421 28.9634C41.8991 29.1293 41.7111 29.3639 41.6023 29.6372H40.2185C39.8305 29.6593 39.4657 29.829 39.1989 30.1115C38.932 30.3939 38.7834 30.7678 38.7834 31.1564C38.7834 31.545 38.932 31.9189 39.1989 32.2013C39.4657 32.4838 39.8305 32.6535 40.2185 32.6756H43.2274V33.8525C43.2199 33.9337 43.2294 34.0155 43.2554 34.0927C43.2813 34.17 43.3231 34.241 43.378 34.3012C43.4329 34.3614 43.4998 34.4094 43.5743 34.4423C43.6488 34.4752 43.7294 34.4922 43.8109 34.4922C43.8924 34.4922 43.973 34.4752 44.0475 34.4423C44.1221 34.4094 44.1889 34.3614 44.2438 34.3012C44.2987 34.241 44.3405 34.17 44.3664 34.0927C44.3924 34.0155 44.4019 33.9337 44.3945 33.8525V32.6461H45.4138L46.8912 39.2695L44.1187 44.194C43.97 44.4556 43.7553 44.6737 43.4961 44.8266C43.237 44.9795 42.9423 45.0619 42.6413 45.0656H35.688C35.5417 43.8755 34.9663 42.7797 34.0696 41.9837C33.173 41.1877 32.0167 40.7461 30.8177 40.7419C29.7191 40.7369 28.6513 41.105 27.7891 41.7859C27.2808 42.1828 26.8563 42.6766 26.5401 43.2387C26.224 43.8009 26.0225 44.4201 25.9474 45.0607H24.7458C24.7845 43.0354 25.6159 41.1061 27.0615 39.6872C28.5072 38.2683 30.4516 37.473 32.4772 37.472H36.6187C36.7754 37.472 36.9257 37.5343 37.0366 37.6451C37.1474 37.7559 37.2096 37.9062 37.2096 38.063V43.3469C37.2096 43.5024 37.2714 43.6514 37.3813 43.7613C37.4912 43.8712 37.6402 43.933 37.7957 43.933H40.903C41.3604 43.9336 41.8134 43.844 42.2361 43.6693C42.6588 43.4945 43.0429 43.2381 43.3663 42.9147C43.6897 42.5912 43.9462 42.2072 44.1209 41.7845C44.2956 41.3618 44.3853 40.9087 44.3846 40.4513V38.5111C44.3833 38.3569 44.3219 38.2093 44.2133 38.0999C44.1047 37.9904 43.9577 37.9277 43.8035 37.9251C43.7268 37.9251 43.6508 37.9403 43.58 37.9698C43.5092 37.9993 43.4449 38.0425 43.3909 38.097C43.3369 38.1515 43.2942 38.2161 43.2652 38.2872C43.2363 38.3583 43.2218 38.4344 43.2224 38.5111V40.4513C43.2231 40.7555 43.1637 41.0567 43.0476 41.3378C42.9315 41.6189 42.761 41.8743 42.546 42.0894C42.3309 42.3044 42.0755 42.4749 41.7944 42.591C41.5133 42.7071 41.2121 42.7665 40.9079 42.7659H38.3817V38.1024C38.3805 37.814 38.3095 37.5301 38.1748 37.2751C38.5083 37.0818 38.7688 36.784 38.916 36.4277C39.0631 36.0715 39.0888 35.6767 38.989 35.3044C38.8892 34.9321 38.6695 34.6031 38.3639 34.3682C38.0582 34.1334 37.6837 34.0058 37.2983 34.0052H35.166C34.9681 34.0051 34.7717 34.0384 34.5849 34.1037V28.9822C34.5836 28.5177 34.3985 28.0725 34.07 27.744C33.7415 27.4155 33.2963 27.2304 32.8318 27.2291H29.0646C27.7604 27.2311 26.4994 27.6969 25.5071 28.5431C24.5147 29.3893 23.8556 30.5608 23.6476 31.8483C23.6298 31.9056 23.6215 31.9655 23.623 32.0256C23.5913 32.2557 23.5749 32.4876 23.5738 32.7199V35.7583C23.5734 36.1753 23.7221 36.5786 23.993 36.8956C24.2639 37.2125 24.6392 37.4222 25.0511 37.4868L26.3413 38.7819C25.4639 39.6133 24.7657 40.6153 24.2898 41.7264C23.8139 42.8375 23.5702 44.0341 23.5738 45.2429V45.6861C23.5738 45.7628 23.589 45.8388 23.6185 45.9096C23.648 45.9804 23.6912 46.0447 23.7457 46.0987C23.8002 46.1527 23.8648 46.1954 23.9359 46.2243C24.007 46.2533 24.0831 46.2678 24.1598 46.2672H27.4395C27.437 46.3065 27.437 46.346 27.4395 46.3853C27.4369 47.2 27.731 47.9877 28.2668 48.6014C28.9517 49.3859 29.75 49.7685 30.8177 49.7685C31.7158 49.7672 32.5768 49.4098 33.2119 48.7747C33.847 48.1396 34.2044 47.2786 34.2057 46.3804C34.2105 46.3412 34.2105 46.3015 34.2057 46.2622H42.6167C43.0669 46.2621 43.5107 46.1564 43.9127 45.9537C44.3146 45.751 44.6634 45.457 44.9312 45.0951H45.6699C45.5048 45.5036 45.4196 45.9399 45.4187 46.3804C45.4095 47.1942 45.6966 47.9836 46.2264 48.6014C46.625 49.1249 47.4933 49.7704 48.8068 49.7685C49.705 49.7672 50.566 49.4098 51.2011 48.7747C51.8362 48.1396 52.1935 47.2786 52.1948 46.3804C52.1951 45.9393 52.1081 45.5025 51.9388 45.0951H52.8941C53.0495 45.0951 53.1986 45.0334 53.3085 44.9235C53.4184 44.8136 53.4801 44.6645 53.4801 44.5091C53.4761 43.0299 52.9005 41.6095 51.8735 40.5449C50.8465 39.4803 49.4477 38.8539 47.9696 38.7967ZM35.166 35.1723H37.2983C37.3794 35.1648 37.4612 35.1744 37.5385 35.2003C37.6157 35.2263 37.6867 35.268 37.7469 35.3229C37.8071 35.3778 37.8552 35.4447 37.8881 35.5192C37.921 35.5938 37.938 35.6744 37.938 35.7559C37.938 35.8373 37.921 35.9179 37.8881 35.9925C37.8552 36.067 37.8071 36.1339 37.7469 36.1888C37.6867 36.2437 37.6157 36.2855 37.5385 36.3114C37.4612 36.3373 37.3794 36.3469 37.2983 36.3394H35.166C35.0205 36.326 34.8852 36.2588 34.7867 36.1508C34.6882 36.0428 34.6336 35.902 34.6336 35.7559C34.6336 35.6097 34.6882 35.4689 34.7867 35.3609C34.8852 35.253 35.0205 35.1857 35.166 35.1723ZM24.7409 32.7101C24.7409 32.6707 24.7409 32.6362 24.7409 32.6017H31.1427C31.2882 32.5883 31.4235 32.5211 31.522 32.4131C31.6204 32.3052 31.675 32.1643 31.675 32.0182C31.675 31.8721 31.6204 31.7312 31.522 31.6232C31.4235 31.5153 31.2882 31.448 31.1427 31.4346H24.9329C25.2069 30.5526 25.7555 29.7811 26.4987 29.2327C27.2419 28.6844 28.1409 28.3879 29.0646 28.3864H32.8318C32.9102 28.385 32.988 28.3995 33.0607 28.4291C33.1333 28.4586 33.1992 28.5025 33.2544 28.5582C33.3096 28.6139 33.353 28.6801 33.3819 28.753C33.4109 28.8259 33.4247 28.9039 33.4227 28.9822V35.7583C33.4227 35.8355 33.4074 35.9118 33.3776 35.983C33.3478 36.0541 33.3041 36.1186 33.2491 36.1727C33.1941 36.2268 33.1288 36.2694 33.0572 36.298C32.9855 36.3267 32.9089 36.3407 32.8318 36.3394H25.3269C25.2502 36.3401 25.1741 36.3255 25.103 36.2966C25.0319 36.2677 24.9673 36.225 24.9128 36.171C24.8583 36.1169 24.8151 36.0527 24.7856 35.9818C24.7561 35.911 24.7409 35.835 24.7409 35.7583V32.7101ZM26.7353 37.4967H28.0747C27.794 37.6592 27.5232 37.8364 27.2622 38.0236L26.7353 37.4967ZM33.0337 46.3607C33.0337 46.945 32.8029 47.5057 32.3916 47.9208C31.9803 48.3358 31.4217 48.5715 30.8374 48.5767H30.7487C30.1726 48.5588 29.626 48.3176 29.2244 47.9041C28.8228 47.4906 28.5977 46.9371 28.5967 46.3607C28.5992 46.3214 28.5992 46.2819 28.5967 46.2425H33.0583C33.0536 46.2818 33.0536 46.3215 33.0583 46.3607H33.0337ZM27.1489 45.0754C27.2926 44.1566 27.7737 43.3243 28.4982 42.7412C29.1534 42.221 29.9663 41.9396 30.8029 41.9435C31.6931 41.9452 32.5537 42.2638 33.2304 42.8422C33.9071 43.4206 34.3559 44.221 34.4963 45.1001L27.1489 45.0754ZM48.4571 30.0705H49.0382V31.2377H48.4571C48.376 31.2451 48.2942 31.2356 48.217 31.2096C48.1397 31.1837 48.0687 31.1419 48.0085 31.087C47.9483 31.0321 47.9003 30.9653 47.8674 30.8907C47.8345 30.8162 47.8175 30.7356 47.8175 30.6541C47.8175 30.5726 47.8345 30.492 47.8674 30.4175C47.9003 30.3429 47.9483 30.2761 48.0085 30.2212C48.0687 30.1663 48.1397 30.1245 48.217 30.0986C48.2942 30.0726 48.376 30.0631 48.4571 30.0705ZM39.8689 31.1687C39.8689 31.076 39.9057 30.987 39.9713 30.9215C40.0368 30.8559 40.1258 30.8191 40.2185 30.8191H41.5087V31.2278C41.4988 31.3244 41.4988 31.4218 41.5087 31.5183H40.2185C40.1258 31.5183 40.0368 31.4815 39.9713 31.4159C39.9057 31.3504 39.8689 31.2614 39.8689 31.1687ZM43.8084 31.5183H42.9664C42.8893 31.5183 42.8154 31.4877 42.7609 31.4332C42.7064 31.3788 42.6758 31.3049 42.6758 31.2278V30.1493C42.6751 30.111 42.6822 30.0729 42.6966 30.0374C42.7109 30.0018 42.7323 29.9695 42.7594 29.9424C42.7865 29.9153 42.8188 29.8939 42.8544 29.8796C42.8899 29.8652 42.928 29.8581 42.9664 29.8588H46.4135C46.4905 29.8588 46.5644 29.8894 46.6189 29.9439C46.6734 29.9984 46.704 30.0723 46.704 30.1493V31.2032C46.7028 31.2798 46.6717 31.353 46.6175 31.4072C46.5633 31.4614 46.4902 31.4925 46.4135 31.4937L43.8084 31.5183ZM51.0228 46.3853C51.0228 46.9697 50.7921 47.5304 50.3807 47.9454C49.9694 48.3604 49.4108 48.5962 48.8265 48.6014H48.7378C48.337 48.5886 47.947 48.4675 47.6094 48.251C47.2718 48.0344 46.9991 47.7305 46.8204 47.3714C46.6416 47.0124 46.5634 46.6116 46.5941 46.2117C46.6247 45.8118 46.7631 45.4276 46.9946 45.1001H50.6141C50.8805 45.4756 51.0234 45.9249 51.0228 46.3853ZM45.6059 43.9231L47.8317 39.9835C48.9189 40.004 49.9629 40.4122 50.7755 41.1345C51.5882 41.8569 52.116 42.8459 52.2638 43.9231H45.6059Z" fill="#3C1F1C"></path>
	<path d="M43.8079 36.758C43.889 36.7655 43.9708 36.7559 44.0481 36.73C44.1253 36.7041 44.1963 36.6623 44.2565 36.6074C44.3167 36.5525 44.3648 36.4856 44.3977 36.4111C44.4306 36.3365 44.4476 36.2559 44.4476 36.1745C44.4476 36.093 44.4306 36.0124 44.3977 35.9378C44.3648 35.8633 44.3167 35.7964 44.2565 35.7415C44.1963 35.6866 44.1253 35.6449 44.0481 35.6189C43.9708 35.593 43.889 35.5834 43.8079 35.5909C43.7268 35.5834 43.6449 35.593 43.5677 35.6189C43.4905 35.6449 43.4195 35.6866 43.3593 35.7415C43.2991 35.7964 43.251 35.8633 43.2181 35.9378C43.1852 36.0124 43.1682 36.093 43.1682 36.1745C43.1682 36.2559 43.1852 36.3365 43.2181 36.4111C43.251 36.4856 43.2991 36.5525 43.3593 36.6074C43.4195 36.6623 43.4905 36.7041 43.5677 36.73C43.6449 36.7559 43.7268 36.7655 43.8079 36.758" fill="#3C1F1C"></path>
</svg>