<?xml version="1.0" encoding="UTF-8"?>
<svg id="Capa_2" data-name="Capa 2" xmlns="http://www.w3.org/2000/svg" viewBox="0 0 79.75 286.64">
  <defs>
    <style>
      .cls-1 {
        fill: none;
        stroke: #fdf5ee;
        stroke-miterlimit: 10;
      }

      .cls-2 {
        font-family: NittiGrotesk-Bold, 'Nitti Grotesk';
        font-size: 29px;
        font-weight: 700;
      }

      .cls-2, .cls-3 {
        fill: #f2e9da;
      }

      .cls-4 {
        letter-spacing: .28em;
      }

      .cls-3 {
        stroke-width: 0px;
      }

      .cls-5 {
        letter-spacing: .28em;
      }
    </style>
  </defs>
  <g id="Capa_1-2" data-name="Capa 1">
    <g>
      <rect class="cls-1" x="-102.95" y="103.95" width="285.64" height="78.75" rx="6.14" ry="6.14" transform="translate(-103.45 183.2) rotate(-90)"/>
      <text class="cls-2" transform="translate(44.28 265.34) rotate(-90)"><tspan class="cls-4" x="0" y="0">Pid</tspan><tspan class="cls-5" x="62.37" y="0">e</tspan><tspan class="cls-4" x="84.59" y="0" xml:space="preserve"> aquí</tspan></text>
      <path class="cls-3" d="M21.39,37.32c-1.48-.5-1.98-1.62-2.03-3.04-.03-.76.13-1.47.52-2.13.42-.71,1.04-1.08,1.87-1.08,2.7,0,5.39-.03,8.09.02.71.01,1.29-.2,1.88-.52,1.72-.93,3.43-1.88,5.15-2.82.63-.34,1.24-.71,1.9-.98.47-.19,1-.33,1.5-.33,5.25-.02,10.5-.02,15.74-.02.17,0,.35,0,.57,0,0-.29,0-.54,0-.79.02-.47.29-.75.75-.75,2.05,0,4.1-.01,6.15,0,.47,0,.84.38.84.85,0,3.29,0,6.59,0,9.88,0,.51-.36.88-.87.88-2.03,0-4.07,0-6.1,0-.5,0-.76-.27-.77-.77-.01-.5,0-1,0-1.52h-1.62c-.07,1.07-.49,2.01-1.29,2.73-.77.69-1.7,1.11-2.82,1.13.25.86.48,1.68.72,2.49.85,2.89,1.71,5.78,2.55,8.67.1.35.13.72.14,1.08,0,7.19,0,14.37,0,21.56,0,.77-.3,1.08-1.07,1.08-11.45,0-22.9,0-34.35,0-.8,0-1.02-.21-1.02-1.02,0-7.41,0-14.83.02-22.24,0-.53.22-1.06.38-1.59,1-3.39,2-6.78,3-10.17.06-.19.12-.39.19-.6ZM48.06,38.82c-1.04.81-1.97,1.53-2.9,2.26-.91.71-1.8,1.38-3.07,1.36-1.77-.03-3.24-1.64-3.24-3.29,0-.63.2-1.25.32-1.87-5.19,0-10.47,0-15.75-.01-.4,0-.49.19-.57.47-1.03,3.48-2.06,6.96-3.08,10.44-.18.61-.39,1.25-.4,1.87-.03,6.99-.02,13.98-.02,20.98,0,.12.02.24.03.33h25.55c0-.16,0-.29,0-.42,0-7.07,0-14.14,0-21.22,0-.13-.01-.26.02-.38.28-.94.57-1.87.84-2.81.74-2.52,1.48-5.04,2.26-7.71ZM34.12,31s.02.05.02.07h.63c3.58,0,7.17,0,10.75,0,.43,0,.72.18.9.56.17.37-.07.6-.3.82-.76.77-1.54,1.52-2.29,2.3-1.02,1.05-2.04,2.11-3.06,3.15-.52.54-.62,1.62.13,2.44.54.59,1.59.77,2.3.24,1.46-1.1,2.89-2.24,4.34-3.35.51-.39.97-.85,1.72-.75.52.07,1.06,0,1.6.01,1.14.01,2.4-.98,2.52-2.2.03-.32.07-.66.19-.96.23-.54.7-.73,1.27-.72.57,0,1.15,0,1.69,0v-4.65c-5.43,0-10.82,0-16.21.02-.44,0-.93.17-1.33.38-1.64.85-3.25,1.75-4.88,2.63ZM52.66,70.31c.02-.17.02-.21.02-.26,0-6.54,0-13.08,0-19.62,0-.33-.03-.67-.12-.99-.4-1.4-.82-2.79-1.23-4.18-.57-1.91-1.13-3.83-1.72-5.82-.1.13-.18.2-.21.29-.83,2.81-1.67,5.61-2.49,8.42-.17.6-.41,1.21-.41,1.82-.03,6.65-.02,13.31-.02,19.96,0,.09,0,.17.01.34.71-.71,1.34-1.37,2-2,.23-.22.31-.44.31-.75,0-5.3,0-10.59,0-15.89,0-.16-.05-.35.02-.48.11-.23.25-.51.45-.6.2-.08.58-.03.71.12.2.22.35.57.35.87.02,4.63.01,9.27.02,13.9,0,.87-.23,1.84.08,2.59.31.74,1.16,1.26,1.78,1.88.12.12.25.23.44.4ZM43.85,32.63c-.92,0-1.7,0-2.47,0-6.48,0-12.95,0-19.42-.01-.49,0-.83.24-.89.61-.1.62-.09,1.28,0,1.9.05.33.34.61.8.6,6.18,0,12.37,0,18.55-.01.15,0,.33-.04.43-.13.98-.95,1.95-1.91,3.01-2.96ZM58.11,26.43c0,1.45,0,2.85,0,4.25s0,2.83,0,4.24h4.65c0-1.43,0-2.83,0-4.24s0-2.83,0-4.25h-4.65ZM51.6,71.39c-.67-.66-1.24-1.24-1.84-1.8-.08-.07-.32-.1-.39-.04-.61.58-1.2,1.19-1.82,1.81.1.01.15.02.19.02,1.24,0,2.48,0,3.86,0Z"/>
    </g>
  </g>
</svg>