<?xml version="1.0" encoding="UTF-8"?>
<svg id="Capa_2" data-name="Capa 2" xmlns="http://www.w3.org/2000/svg" viewBox="0 0 60.34 217.93">
  <defs>
    <style>
      .cls-1 {
        font-family: NittiGrotesk-Bold, 'Nitti Grotesk';
        font-size: 22px;
        font-weight: 700;
      }

      .cls-1, .cls-2 {
        fill: #7f5540;
      }

      .cls-3 {
        letter-spacing: .28em;
      }

      .cls-2, .cls-4 {
        stroke-width: 0px;
      }

      .cls-4 {
        fill: #fff5ee;
      }

      .cls-5 {
        letter-spacing: .28em;
      }

      .cls-6 {
        letter-spacing: .28em;
      }

      .cls-7 {
        fill: none;
        stroke: #7f5540;
        stroke-miterlimit: 10;
        stroke-width: .5px;
      }
    </style>
  </defs>
  <g id="Capa_1-2" data-name="Capa 1">
    <g>
      <path class="cls-4" d="M60.34,217.68H4.92c-2.58,0-4.67-2.09-4.67-4.67V4.92c0-2.58,2.09-4.67,4.67-4.67h55.27"/>
      <text class="cls-1" transform="translate(33.57 201.84) rotate(-90)"><tspan class="cls-3" x="0" y="0">Pid</tspan><tspan class="cls-5" x="47.31" y="0">e</tspan><tspan class="cls-6" x="64.17" y="0" xml:space="preserve"> aquí</tspan></text>
      <path class="cls-2" d="M16.15,28.28c-1.13-.38-1.51-1.23-1.55-2.32-.02-.58.1-1.12.4-1.62.32-.54.79-.82,1.42-.82,2.05,0,4.11-.02,6.16.01.54,0,.99-.16,1.43-.4,1.31-.71,2.61-1.43,3.92-2.15.48-.26.94-.54,1.44-.75.36-.15.76-.25,1.14-.25,3.99-.02,7.99-.01,11.98-.01.13,0,.26,0,.43,0,0-.22,0-.41,0-.6.02-.36.22-.57.57-.57,1.56,0,3.12,0,4.68,0,.36,0,.64.29.64.65,0,2.51,0,5.02,0,7.52,0,.39-.28.67-.66.67-1.55,0-3.1,0-4.65,0-.38,0-.58-.21-.59-.59-.01-.38,0-.76,0-1.16h-1.24c-.05.82-.37,1.53-.98,2.07-.59.52-1.29.84-2.15.86.19.65.37,1.28.55,1.9.65,2.2,1.3,4.4,1.94,6.6.08.26.1.55.1.82,0,5.47,0,10.94,0,16.41,0,.59-.23.82-.81.82-8.71,0-17.43,0-26.14,0-.61,0-.77-.16-.77-.78,0-5.64,0-11.29.01-16.93,0-.4.17-.81.29-1.21.76-2.58,1.52-5.16,2.28-7.74.04-.15.09-.29.14-.46ZM36.45,29.41c-.79.62-1.5,1.17-2.21,1.72-.69.54-1.37,1.05-2.34,1.03-1.35-.02-2.46-1.25-2.46-2.5,0-.48.16-.95.24-1.42-3.95,0-7.97,0-11.99-.01-.3,0-.37.14-.43.36-.78,2.65-1.57,5.3-2.34,7.95-.14.47-.3.95-.3,1.42-.02,5.32-.01,10.64-.01,15.97,0,.09.01.18.02.25,6.5,0,12.97,0,19.45,0,0-.12,0-.22,0-.32,0-5.38,0-10.77,0-16.15,0-.1-.01-.2.02-.29.21-.72.43-1.43.64-2.14.56-1.92,1.12-3.84,1.72-5.87ZM25.84,23.47s.01.04.02.06h.48c2.73,0,5.46,0,8.18,0,.33,0,.55.14.69.43.13.29-.06.45-.23.63-.58.58-1.17,1.16-1.75,1.75-.78.8-1.55,1.6-2.33,2.4-.4.41-.47,1.24.1,1.86.41.45,1.21.59,1.75.19,1.11-.84,2.2-1.7,3.3-2.55.39-.3.74-.65,1.31-.57.4.05.81,0,1.22,0,.86.01,1.83-.75,1.92-1.67.02-.25.05-.5.15-.73.17-.41.54-.55.97-.55.44,0,.87,0,1.29,0,0-1.21,0-2.37,0-3.54-4.13,0-8.23,0-12.34.01-.34,0-.7.13-1.01.29-1.25.65-2.48,1.33-3.71,2ZM39.96,53.39c.01-.13.02-.16.02-.2,0-4.98,0-9.96,0-14.93,0-.25-.03-.51-.09-.75-.3-1.06-.62-2.12-.93-3.18-.43-1.46-.86-2.92-1.31-4.43-.07.1-.14.15-.16.22-.64,2.14-1.27,4.27-1.89,6.41-.13.45-.31.92-.31,1.38-.02,5.06-.02,10.13-.02,15.19,0,.07,0,.13.01.26.54-.54,1.02-1.04,1.53-1.52.17-.17.24-.33.24-.57,0-4.03,0-8.06,0-12.1,0-.12-.04-.26.01-.36.08-.17.19-.39.34-.45.15-.06.44-.02.54.09.15.17.27.44.27.66.02,3.53.01,7.06.01,10.58,0,.66-.17,1.4.06,1.97.24.57.89.96,1.35,1.43.09.09.19.17.33.31ZM33.25,24.7c-.7,0-1.29,0-1.88,0-4.93,0-9.86,0-14.79,0-.37,0-.64.18-.68.47-.08.47-.06.97,0,1.45.04.25.26.46.61.46,4.71,0,9.41,0,14.12,0,.11,0,.25-.03.33-.1.75-.72,1.48-1.46,2.29-2.26ZM44.1,19.99c0,1.1,0,2.17,0,3.24s0,2.15,0,3.22h3.54c0-1.09,0-2.16,0-3.22s0-2.15,0-3.24c-1.19,0-2.35,0-3.54,0ZM39.14,54.21c-.51-.5-.95-.94-1.4-1.37-.06-.06-.25-.08-.3-.03-.46.44-.91.9-1.39,1.38.08.01.11.02.15.02.94,0,1.89,0,2.93,0Z"/>
      <path class="cls-7" d="M60.34,217.68H4.92c-2.58,0-4.67-2.09-4.67-4.67V4.92c0-2.58,2.09-4.67,4.67-4.67h55.27"/>
    </g>
  </g>
</svg>