<?xml version="1.0" encoding="UTF-8"?>
<svg id="Capa_2" data-name="Capa 2" xmlns="http://www.w3.org/2000/svg" viewBox="0 0 79.3 72.65">
  <defs>
    <style>
      .cls-1 {
        fill: #dbc7ba;
        stroke-width: 0px;
      }
    </style>
  </defs>
  <g id="Capa_1-2" data-name="Capa 1">
    <path class="cls-1" d="M69.68,13.73C55.39-2.83,30.29-4.67,13.73,9.62-2.83,23.91-4.67,49.01,9.62,65.57c2.25,2.6,4.82,4.9,7.66,6.84l.32.22.15-.36c.46-1.13,1.15-2.1,2.07-2.89,3.04-2.62,7.6-2.41,10.39.47l.23.23.23-.24c.2-.21.39-.39.58-.56,3.5-3.02,8.81-2.63,11.84.87.53.61.96,1.3,1.3,2.04l.2.44.32-.36c.38-.43.78-.82,1.19-1.17,4.89-4.22,12.12-4.07,16.81.36l.19.18.21-.16c.89-.66,1.61-1.24,2.28-1.81,16.56-14.29,18.4-39.39,4.11-55.95ZM53.89,29.02c.01.32.02.63.02.95,0,9.71-7.39,20.91-20.91,20.91-4.15,0-8.01-1.22-11.26-3.3.58.07,1.16.1,1.75.1,3.44,0,6.61-1.17,9.13-3.15-3.22-.06-5.93-2.18-6.86-5.1.45.09.91.13,1.38.13.67,0,1.32-.09,1.94-.26-3.36-.67-5.9-3.64-5.9-7.2,0-.03,0-.06,0-.09.99.55,2.12.88,3.33.92-1.97-1.32-3.27-3.57-3.27-6.12,0-1.35.36-2.61,1-3.69,3.62,4.45,9.04,7.37,15.15,7.68-.13-.54-.19-1.1-.19-1.68,0-4.06,3.29-7.35,7.35-7.35,2.11,0,4.02.89,5.36,2.32,1.67-.33,3.25-.94,4.67-1.78-.55,1.72-1.71,3.16-3.23,4.06,1.49-.18,2.9-.57,4.22-1.16-.98,1.47-2.23,2.77-3.67,3.8Z"/>
  </g>
</svg>