<svg xmlns:xlink="http://www.w3.org/1999/xlink" xmlns="http://www.w3.org/2000/svg" viewBox="0 0 24 24" class="btn-svg w-[24px] h-[24px]" width="24" height="24">
    <path fill-rule="evenodd" clip-rule="evenodd" d="M12.1684 4C7.85389 4 4.33852 7.4941 4.33679 11.7964C4.33627 13.077 4.64965 14.3299 5.24769 15.4523L4 19.9879L8.65657 18.7722C9.7414 19.3145 10.9439 19.5991 12.1655 19.5994H12.1685C16.4826 19.5994 19.9983 16.105 20 11.8027C20.0008 9.71958 19.1854 7.75823 17.7073 6.2856C16.2293 4.8129 14.2608 4.00086 12.1684 4ZM5.64255 11.7969C5.64398 8.22115 8.56918 5.3059 12.1681 5.30576C13.9164 5.30654 15.5532 5.98252 16.7857 7.21059C18.0183 8.43871 18.6949 10.0673 18.6942 11.8021C18.6928 15.3781 15.7671 18.2937 12.1685 18.2937H12.1655C11.0725 18.2933 9.99908 18.0203 9.04648 17.5032L8.81973 17.3801L5.859 18.1531L6.65 15.2776L6.51272 15.0409C5.94235 14.0572 5.64208 12.9412 5.64255 11.7969ZM14.2156 12.7119C14.3801 12.7716 15.262 13.2034 15.4413 13.2927C15.4763 13.3102 15.5091 13.3259 15.5394 13.3405C15.6645 13.4007 15.749 13.4413 15.7851 13.5012C15.8299 13.5757 15.8299 13.9331 15.6805 14.3501C15.531 14.7671 14.8144 15.1477 14.4697 15.1989C14.1607 15.2449 13.7697 15.264 13.34 15.1282C13.0795 15.0459 12.7453 14.9361 12.3174 14.7521C10.6359 14.0295 9.49947 12.4075 9.28471 12.101C9.26967 12.0795 9.25915 12.0645 9.25328 12.0567L9.25179 12.0547C9.15671 11.9284 8.52083 11.084 8.52083 10.21C8.52083 9.3877 8.92674 8.95668 9.11356 8.75831C9.12634 8.74474 9.1381 8.73225 9.14864 8.7208C9.31303 8.54212 9.50737 8.49745 9.62695 8.49745C9.74649 8.49745 9.86621 8.49855 9.97071 8.50372C9.98361 8.50436 9.99703 8.50429 10.0109 8.50421C10.1154 8.50361 10.2458 8.50287 10.3743 8.81014C10.4235 8.92791 10.4955 9.10224 10.5714 9.28628C10.7261 9.66089 10.8973 10.0757 10.9273 10.1357C10.9722 10.225 11.0021 10.3292 10.9423 10.4484C10.9333 10.4662 10.925 10.4831 10.9171 10.4992C10.8722 10.5905 10.8391 10.6576 10.7629 10.7462C10.733 10.7809 10.7021 10.8183 10.6713 10.8558C10.6095 10.9307 10.5477 11.0056 10.4939 11.0589C10.4041 11.1479 10.3106 11.2445 10.4152 11.4232C10.5198 11.602 10.8798 12.1865 11.4131 12.6599C11.9862 13.1687 12.4844 13.3837 12.7369 13.4927C12.7862 13.514 12.8262 13.5313 12.8555 13.5459C13.0349 13.6353 13.1395 13.6203 13.2441 13.5012C13.3488 13.3821 13.6925 12.9799 13.8121 12.8013C13.9317 12.6226 14.0512 12.6524 14.2156 12.7119Z" fill="#3C1F1C"></path>
</svg>